<svg xmlns="http://www.w3.org/2000/svg" width="81" height="92" viewBox="0 0 81 92" fill="none"><path d="M0.964355 72.3276L40.9644 92L80.9644 72.3276V0H0.964355V72.3276Z" fill="white"></path><path d="M0.964355 72.3276L40.9644 92L80.9644 72.3276V0H0.964355V72.3276Z" fill="white"></path><path d="M62.7035 0H80.9644V18.2264H62.7035V0Z" fill="#FF492C"></path><path fill-rule="evenodd" clip-rule="evenodd" d="M75.7913 6.97988H74.2313C74.273 6.736 74.4243 6.59973 74.7304 6.44438L75.0174 6.29943C75.5322 6.03645 75.8052 5.74049 75.8052 5.25705C75.8107 5.11745 75.7812 4.97868 75.7196 4.85323C75.658 4.72779 75.5661 4.6196 75.4522 4.53841C75.2209 4.36483 74.9383 4.28064 74.613 4.28064C74.353 4.28064 74.1174 4.34573 73.9009 4.482C73.6966 4.6025 73.5326 4.78068 73.4296 4.99407L73.8817 5.44539C74.0557 5.09302 74.3113 4.91856 74.6461 4.91856C74.9287 4.91856 75.1026 5.06438 75.1026 5.26573C75.1026 5.43498 75.0183 5.57645 74.693 5.74049L74.5087 5.82988C74.1087 6.03124 73.8304 6.26124 73.6696 6.52422C73.5096 6.78287 73.4296 7.11615 73.4296 7.51453V7.62302H75.7913V6.97988ZM75.5783 8.36856H73L71.7096 10.5991H74.2896L75.5791 12.8288L76.8687 10.5983L75.5791 8.3677L75.5783 8.36856Z" fill="white"></path><path fill-rule="evenodd" clip-rule="evenodd" d="M71.9287 12.0885C70.2835 12.0885 68.9461 10.7545 68.9461 9.11411C68.9461 7.47373 70.2835 6.13973 71.9287 6.13973L72.9496 4.00811C72.1927 3.85712 71.4117 3.87561 70.6629 4.06226C69.9141 4.2489 69.216 4.59905 68.6192 5.08746C68.0223 5.57587 67.5414 6.19038 67.2112 6.88668C66.881 7.58298 66.7096 8.34374 66.7096 9.11411C66.7098 9.79798 66.845 10.4751 67.1074 11.1068C67.3698 11.7385 67.7543 12.3125 68.2389 12.7959C68.7236 13.2793 69.2989 13.6627 69.9319 13.9242C70.565 14.1857 71.2435 14.3202 71.9287 14.3199C73.0336 14.3218 74.1103 13.9722 75.0026 13.3218L73.8722 11.3681C73.3496 11.8168 72.6704 12.0885 71.9287 12.0885Z" fill="white"></path><path fill-rule="evenodd" clip-rule="evenodd" d="M62.6574 17.8219V0.578857H63.6009V17.8219H62.6574Z" fill="black"></path><path d="M0.964355 72.4891V66.8475L40.9644 86.8463L80.9644 66.8467V72.4882L40.9644 91.9991L0.964355 72.4891Z" fill="black"></path><path d="M0.964355 67.3206V61.6791L40.9644 81.6787L80.9644 61.6791V67.3206L40.9644 86.8315L0.964355 67.3206Z" fill="#FF492C"></path><path d="M0.964355 62.1695V56.528L40.9644 76.5275L80.9644 56.5288V62.1703L40.9644 81.6813L0.964355 62.1695Z" fill="#FFC800"></path><path fill-rule="evenodd" clip-rule="evenodd" d="M40.9644 90.9498L80.0209 71.7418V0.941698H1.90783V71.7418L40.9644 90.9498ZM0.964355 72.3276L40.9644 92L80.9644 72.3276V0H0.964355V72.3276Z" fill="black"></path><path fill-rule="evenodd" clip-rule="evenodd" d="M1.50696 17.3507H80.5948V18.2924H1.50783L1.50696 17.3507Z" fill="black"></path><path d="M5.75131 11.2708V7.17077H7.14262C7.42349 7.17077 7.67044 7.21416 7.88175 7.29922C8.09305 7.38514 8.2574 7.51533 8.37479 7.68978C8.49218 7.86337 8.55131 8.07775 8.55131 8.33552C8.55131 8.49609 8.51044 8.64363 8.42957 8.77816C8.3487 8.91269 8.23827 9.02986 8.09305 9.1262C8.28436 9.22514 8.43218 9.35446 8.53653 9.51677C8.64088 9.67907 8.69131 9.87262 8.69131 10.1C8.69131 10.35 8.63479 10.5626 8.52175 10.7379C8.40783 10.9141 8.24957 11.046 8.04609 11.1363C7.84262 11.2266 7.60349 11.2708 7.32957 11.2708H5.75131ZM6.5374 8.84065H7.15914C7.33566 8.84065 7.47479 8.79465 7.57653 8.70526C7.67827 8.61586 7.7287 8.48828 7.7287 8.32424C7.73254 8.2518 7.71908 8.17948 7.68945 8.11324C7.65983 8.047 7.61486 7.98873 7.55827 7.94322C7.44522 7.85382 7.29044 7.80869 7.09479 7.80869H6.53827V8.83979L6.5374 8.84065ZM6.5374 10.5626H7.25392C7.44522 10.5626 7.59566 10.5149 7.70609 10.4194C7.81653 10.3239 7.86957 10.1955 7.86957 10.0349C7.87289 9.95929 7.85814 9.88396 7.82654 9.81515C7.79494 9.74633 7.7474 9.686 7.68783 9.63914C7.56609 9.54367 7.40088 9.49594 7.18957 9.49594H6.5374V10.5626ZM9.93044 11.2708V7.17077H12.5304V7.90243H10.7339V8.83458H12.2835V9.54888H10.7339V10.5383H12.5539V11.2708H9.92957H9.93044ZM15.3531 11.3411C15.1461 11.3411 14.9522 11.3151 14.7722 11.2648C14.5922 11.2153 14.4322 11.1433 14.2913 11.0513C14.1504 10.9593 14.0339 10.8577 13.9417 10.744C13.8545 10.641 13.7931 10.5187 13.7626 10.3873L14.5487 10.153C14.6033 10.2907 14.697 10.4095 14.8183 10.4949C14.9609 10.5951 15.1317 10.6477 15.3061 10.6451C15.5139 10.6477 15.6826 10.6034 15.8139 10.5097C15.8748 10.4705 15.9247 10.4166 15.9592 10.3531C15.9937 10.2895 16.0116 10.2183 16.0113 10.146C16.0117 10.0836 15.9978 10.0219 15.9707 9.96562C15.9436 9.90936 15.9039 9.86003 15.8548 9.82141C15.7301 9.72292 15.5848 9.65379 15.4296 9.61918L14.8957 9.47858C14.7072 9.43268 14.5283 9.35426 14.367 9.24684C14.2193 9.1488 14.0968 9.01737 14.0096 8.86322C13.9226 8.71133 13.8791 8.53341 13.8791 8.33031C13.8791 7.94322 14.0078 7.64118 14.2644 7.42507C14.5209 7.20809 14.8835 7.10046 15.3531 7.10046C15.6157 7.10046 15.8452 7.13779 16.0435 7.21416C16.2409 7.29054 16.4061 7.39816 16.5391 7.53877C16.6722 7.67937 16.7739 7.84601 16.8444 8.03782L16.0635 8.27737C16.0134 8.14073 15.9235 8.02222 15.8052 7.93714C15.6664 7.83951 15.4993 7.79011 15.3296 7.79654C15.1339 7.79654 14.98 7.84167 14.8687 7.93107C14.8128 7.97721 14.7686 8.03581 14.7396 8.10215C14.7106 8.16848 14.6976 8.24069 14.7017 8.31295C14.7017 8.44141 14.7452 8.54382 14.8339 8.61673C14.9217 8.69224 15.0426 8.74865 15.1948 8.78771L15.7348 8.92224C16.087 9.00816 16.3609 9.16265 16.5565 9.38484C16.7522 9.60703 16.8496 9.85526 16.8496 10.1287C16.8496 10.3717 16.7913 10.5826 16.6739 10.764C16.5492 10.9525 16.3717 11.1004 16.1635 11.1893C15.9409 11.2908 15.6704 11.3411 15.3531 11.3411ZM18.9922 11.2708V7.90329H17.76V7.16903H21.0235V7.90156H19.7965V11.27H18.9922V11.2708ZM25.5017 11.3411C25.2948 11.3411 25.1 11.3151 24.9209 11.2648C24.7409 11.2153 24.58 11.1433 24.4391 11.0513C24.2983 10.9593 24.1817 10.8577 24.0904 10.744C24.0032 10.641 23.9418 10.5187 23.9113 10.3873L24.6974 10.153C24.752 10.2907 24.8457 10.4095 24.967 10.4949C25.1094 10.5949 25.2798 10.6475 25.4539 10.6451C25.6626 10.6477 25.8313 10.6034 25.9617 10.5097C26.0226 10.4705 26.0726 10.4166 26.1071 10.3531C26.1416 10.2895 26.1595 10.2183 26.1591 10.146C26.1596 10.0836 26.1457 10.0219 26.1185 9.96562C26.0914 9.90936 26.0518 9.86003 26.0026 9.82141C25.8782 9.72304 25.7331 9.65392 25.5783 9.61918L25.0435 9.47858C24.8554 9.43259 24.6767 9.35417 24.5157 9.24684C24.3676 9.1489 24.2449 9.01746 24.1574 8.86322C24.0713 8.71133 24.0278 8.53341 24.0278 8.33031C24.0278 7.94322 24.1565 7.64118 24.413 7.42507C24.6687 7.20809 25.0322 7.10046 25.5017 7.10046C25.7644 7.10046 25.9939 7.13779 26.1913 7.21416C26.3887 7.29054 26.5539 7.39816 26.687 7.53877C26.82 7.67937 26.9217 7.84601 26.9931 8.03782L26.2122 8.27737C26.1621 8.14073 26.0722 8.02222 25.9539 7.93714C25.8151 7.83951 25.648 7.79011 25.4783 7.79654C25.2826 7.79654 25.1287 7.84167 25.0174 7.93107C24.9615 7.97721 24.9173 8.03581 24.8883 8.10215C24.8593 8.16848 24.8463 8.24069 24.8504 8.31295C24.8504 8.44141 24.8939 8.54382 24.9826 8.61673C25.0696 8.69224 25.1913 8.74865 25.3435 8.78771L25.8826 8.92224C26.2357 9.00816 26.5087 9.16265 26.7052 9.38484C26.9009 9.60703 26.9983 9.85526 26.9983 10.1287C26.9983 10.3717 26.94 10.5826 26.8226 10.764C26.6976 10.9527 26.5198 11.1006 26.3113 11.1893C26.0887 11.2908 25.8183 11.3411 25.5017 11.3411ZM30.1504 11.3411C29.7348 11.3411 29.3678 11.2509 29.0496 11.0695C28.7313 10.8881 28.4817 10.6381 28.3017 10.3187C28.1176 9.98462 28.0243 9.60816 28.0313 9.22688C28.0313 8.80854 28.1217 8.44054 28.3009 8.12201C28.4817 7.80435 28.7287 7.55526 29.0435 7.3756C29.3763 7.19164 29.7519 7.09882 30.1322 7.10654C30.547 7.10654 30.9122 7.1968 31.2278 7.3782C31.5435 7.5596 31.7896 7.80956 31.9696 8.12809C32.1496 8.44661 32.2391 8.81375 32.2391 9.22688C32.2391 9.63654 32.1504 10.0011 31.973 10.3187C31.7948 10.6381 31.5478 10.8881 31.2331 11.0695C30.9183 11.2509 30.5583 11.3411 30.1504 11.3411ZM30.1504 10.6086C30.4009 10.6086 30.62 10.5496 30.8113 10.4298C31.0015 10.3104 31.1554 10.1415 31.2565 9.94118C31.3635 9.73462 31.4174 9.49594 31.4174 9.22688C31.4174 8.95261 31.3635 8.71307 31.2539 8.5065C31.1444 8.29994 30.993 8.1359 30.8017 8.01699C30.6002 7.89495 30.3679 7.83292 30.1322 7.8382C29.9023 7.83436 29.676 7.89495 29.479 8.01309C29.2819 8.13122 29.122 8.30217 29.0174 8.5065C28.9037 8.72939 28.847 8.97684 28.8522 9.22688C28.8522 9.49594 28.9078 9.73462 29.0174 9.94118C29.1239 10.1479 29.2868 10.3203 29.4873 10.4386C29.6878 10.5568 29.9177 10.6161 30.1504 10.6095V10.6086ZM33.4783 11.2708V7.17077H36.1131V7.90243H34.2826V8.88665H35.8087V9.61918H34.2826V11.2708H33.4783ZM38.1852 11.2708V7.90329H36.9531V7.16903H40.2165V7.90156H38.9896V11.27H38.1852V11.2708ZM42.1478 11.2708L40.9322 7.17077H41.7478L42.9165 11.2708H42.1478ZM42.2522 11.2708L43.3739 7.17077H44.1017L42.9861 11.2708H42.2522ZM44.5478 11.2708L43.4452 7.17077H44.1722L45.3174 11.2708H44.5478ZM44.6244 11.2708L45.8035 7.17077H46.62L45.393 11.2708H44.6244ZM46.9009 11.2708L48.5209 7.17077H49.3252L47.753 11.2708H46.9009ZM47.6644 10.3691V9.65997H50.2409V10.3691H47.6644ZM50.147 11.2717L48.573 7.17077H49.3783L50.9983 11.2708H50.147V11.2717ZM52.0783 11.2708V7.17077H53.6035C53.893 7.17077 54.1496 7.22718 54.3731 7.34001C54.5965 7.45284 54.7704 7.60907 54.8948 7.80609C55.0191 8.00311 55.0826 8.23224 55.0826 8.49435C55.0826 8.75212 55.0174 8.98126 54.887 9.18261C54.7548 9.38397 54.5757 9.5402 54.3496 9.65129C54.1235 9.76239 53.8644 9.81794 53.5748 9.81794H52.8817V11.2708H52.0774H52.0783ZM52.8817 9.08541H53.6096C53.7313 9.08541 53.84 9.06024 53.9357 9.0099C54.0313 8.95956 54.1078 8.88839 54.1652 8.79812C54.2218 8.70696 54.251 8.60156 54.2496 8.49435C54.2496 8.31903 54.1861 8.17582 54.0583 8.06646C53.9304 7.95711 53.7687 7.90243 53.5687 7.90243H52.8817V9.08541ZM54.3374 11.2708L53.387 9.62526L54.0026 9.18609L55.2478 11.2708H54.3374ZM56.4504 11.2708V7.17077H59.0504V7.90243H57.2539V8.83458H58.8044V9.54888H57.2539V10.5383H59.0739V11.2708H56.4504ZM33.3783 27.1105V26.5185C33.3783 26.4057 33.413 26.2799 33.4844 26.1436C33.5557 26.0073 33.6522 25.8702 33.7774 25.7331C33.9026 25.5959 34.0487 25.4692 34.2174 25.3529L34.84 24.9068C34.9261 24.8495 35.007 24.7818 35.0835 24.708C35.16 24.6343 35.2226 24.5518 35.2713 24.465C35.3189 24.3847 35.344 24.2932 35.344 24.1999C35.344 24.1066 35.3189 24.015 35.2713 23.9347C35.2217 23.8523 35.1504 23.788 35.0574 23.7412C34.9644 23.6943 34.8478 23.6717 34.7104 23.6717C34.6018 23.6697 34.4942 23.6935 34.3965 23.7412C34.3078 23.7855 34.2304 23.8497 34.1704 23.9287C34.1131 24.0039 34.0711 24.0898 34.047 24.1812L33.22 24.0406C33.2591 23.8445 33.3426 23.6631 33.4722 23.4956C33.6009 23.3272 33.7704 23.1918 33.98 23.0876C34.1896 22.9835 34.427 22.9331 34.6931 22.9331C34.9974 22.9331 35.26 22.9878 35.4791 23.098C35.6983 23.2083 35.8678 23.3558 35.987 23.5459C36.107 23.7351 36.1661 23.9538 36.1661 24.2047C36.1661 24.4581 36.0965 24.6837 35.9574 24.8816C35.8183 25.0778 35.6278 25.2635 35.3852 25.4345L34.8287 25.839C34.7139 25.9171 34.6165 26.003 34.5339 26.0967C34.4533 26.1882 34.3899 26.2934 34.347 26.4074H36.2191V27.1105H33.3783ZM38.9652 27.1799C38.633 27.1799 38.3391 27.0905 38.0852 26.9082C37.8219 26.7159 37.615 26.4567 37.4861 26.1575C37.3417 25.8398 37.2687 25.4736 37.2687 25.0596C37.2687 24.6456 37.3417 24.2793 37.4861 23.9608C37.6313 23.6431 37.8296 23.3931 38.0817 23.2117C38.3348 23.0295 38.6278 22.9384 38.96 22.9384C39.2922 22.9384 39.587 23.0304 39.8435 23.2117C40.0991 23.3931 40.3 23.6431 40.4452 23.9608C40.5896 24.2793 40.6626 24.6464 40.6626 25.0596C40.6626 25.4736 40.5896 25.8407 40.4452 26.1575C40.3163 26.4567 40.1094 26.7159 39.8461 26.9082C39.5913 27.0905 39.2974 27.1799 38.9652 27.1799ZM38.9652 26.4543C39.1398 26.455 39.3083 26.391 39.4383 26.2747C39.5774 26.1566 39.6861 25.9917 39.7644 25.7834C39.8426 25.5751 39.8817 25.333 39.8817 25.0596C39.8817 24.7862 39.8426 24.544 39.7644 24.3331C39.6861 24.1222 39.5774 23.9573 39.4383 23.8384C39.3075 23.7228 39.139 23.659 38.9644 23.659C38.7897 23.659 38.6212 23.7228 38.4904 23.8384C38.3539 23.9573 38.247 24.1222 38.1704 24.3331C38.0939 24.544 38.0557 24.7862 38.0557 25.0596C38.0557 25.333 38.0939 25.5751 38.1704 25.7834C38.247 25.9917 38.3548 26.1566 38.4931 26.2747C38.623 26.391 38.7907 26.455 38.9652 26.4543ZM41.7539 27.1105V26.5185C41.7539 26.4057 41.7887 26.2799 41.86 26.1436C41.9296 26.0073 42.0278 25.8702 42.153 25.7331C42.2783 25.5968 42.4252 25.4692 42.5931 25.3529L43.2157 24.9068C43.3025 24.8478 43.3839 24.7813 43.4591 24.708C43.5357 24.6343 43.5983 24.5518 43.647 24.465C43.6928 24.3876 43.718 24.2998 43.72 24.2099C43.7226 24.1124 43.6968 24.0163 43.6459 23.9332C43.595 23.85 43.5211 23.7833 43.433 23.7412C43.3246 23.6918 43.2061 23.668 43.087 23.6717C42.9696 23.6717 42.8644 23.6943 42.7722 23.7412C42.68 23.788 42.6052 23.8505 42.5461 23.9287C42.487 24.0068 42.4461 24.0918 42.4235 24.1812L41.5957 24.0406C41.6348 23.8445 41.7191 23.6631 41.8478 23.4956C41.9765 23.3272 42.1461 23.1918 42.3557 23.0876C42.5644 22.9844 42.8026 22.9331 43.0687 22.9331C43.3731 22.9331 43.6357 22.9878 43.8548 23.098C44.0739 23.2083 44.2435 23.3558 44.3626 23.5459C44.4826 23.7351 44.5417 23.9538 44.5417 24.2047C44.5417 24.4581 44.4722 24.6837 44.3339 24.8816C44.1948 25.0778 44.0035 25.2635 43.7617 25.4345L43.2035 25.839C43.0904 25.9171 42.9922 26.003 42.9096 26.0967C42.8292 26.1884 42.7659 26.2936 42.7226 26.4074H44.5948V27.1105H41.7539ZM47.1591 27.1799C46.9627 27.1789 46.7677 27.1476 46.5809 27.087C46.3875 27.0266 46.2068 26.9313 46.0478 26.8058C45.8922 26.6847 45.7714 26.5249 45.6974 26.3424L46.4313 26.1254C46.5174 26.2512 46.62 26.3424 46.74 26.4014C46.86 26.4604 46.9835 26.489 47.1122 26.489C47.3157 26.489 47.4809 26.4283 47.6078 26.3042C47.7348 26.18 47.7991 26.0177 47.7991 25.8094C47.8034 25.7199 47.7888 25.6304 47.7564 25.5468C47.7239 25.4632 47.6744 25.3872 47.6109 25.3238C47.5473 25.2604 47.4713 25.211 47.3875 25.1786C47.3037 25.1463 47.2141 25.1317 47.1244 25.1359C47.0026 25.1359 46.8913 25.1628 46.7896 25.2184C46.6878 25.2739 46.6096 25.3373 46.5548 25.4111L45.833 25.2531L46.08 23.0095H48.4044V23.7351H46.7652L46.6478 24.7202C46.753 24.6612 46.8713 24.6134 47 24.5761C47.1287 24.5388 47.2678 24.5232 47.4165 24.5275C47.629 24.5247 47.8383 24.5789 48.0226 24.6844C48.2069 24.7899 48.3595 24.9428 48.4644 25.1273C48.5722 25.3121 48.6252 25.5291 48.6252 25.7747C48.6252 26.0525 48.5626 26.2955 48.4383 26.5073C48.3146 26.7162 48.136 26.8873 47.9217 27.002C47.6863 27.1245 47.4246 27.1857 47.1591 27.1799ZM17.0687 46.8531V37.2713H13.5209V34.7022H23.3991V37.2713H19.8513V46.8531H17.0687ZM27.5739 47.0614C26.6574 47.0614 25.8522 46.8679 25.1565 46.4799C24.4724 46.1041 23.9041 45.5489 23.513 44.8743C23.113 44.1921 22.9131 43.404 22.9131 42.5135C22.9131 41.623 23.1061 40.8358 23.4957 40.1528C23.8792 39.4753 24.4456 38.9189 25.1304 38.5471C25.8313 38.16 26.6278 37.9656 27.5217 37.9656C28.4365 37.9656 29.2452 38.16 29.9478 38.5471C30.6325 38.9191 31.1989 39.4754 31.5826 40.1528C31.9704 40.8358 32.1652 41.623 32.1652 42.5135C32.1652 43.404 31.9704 44.1921 31.5826 44.8743C31.2011 45.5503 30.6379 46.1064 29.9565 46.4799C29.2609 46.8679 28.4661 47.0614 27.5739 47.0614ZM27.5739 44.5618C27.9209 44.5618 28.2313 44.475 28.5044 44.3014C28.7757 44.1279 28.9913 43.8874 29.1478 43.5811C29.3044 43.2747 29.3826 42.9188 29.3826 42.5135C29.3826 42.1082 29.3044 41.7523 29.1478 41.446C29.0012 41.1504 28.7755 40.9011 28.4957 40.7256C28.2174 40.552 27.8974 40.4652 27.5383 40.4652C27.1791 40.4652 26.86 40.552 26.5817 40.7256C26.3035 40.8992 26.0861 41.1396 25.9296 41.446C25.7731 41.7523 25.6948 42.1082 25.6948 42.5135C25.6948 42.9188 25.7731 43.2747 25.9296 43.5811C26.0861 43.8874 26.307 44.1279 26.5904 44.3014C26.8739 44.475 27.2026 44.5618 27.5739 44.5618ZM33.573 50.3248V38.1739H36.1296L36.2861 39.7709V50.3248H33.573ZM38.7557 47.0614C38.0365 47.0614 37.4339 46.8792 36.947 46.5147C36.46 46.1501 36.0948 45.6268 35.8513 44.9437C35.6078 44.2615 35.4861 43.4509 35.4861 42.5135C35.4861 41.564 35.6078 40.7516 35.8513 40.0747C36.0948 39.3977 36.46 38.8769 36.947 38.5124C37.4339 38.1479 38.0365 37.9656 38.7557 37.9656C39.567 37.9656 40.2687 38.1479 40.86 38.5124C41.4513 38.8769 41.9035 39.3977 42.2165 40.0747C42.5296 40.7516 42.6861 41.564 42.6861 42.5135C42.6861 43.4509 42.5296 44.2615 42.2165 44.9437C41.9035 45.6268 41.4513 46.1501 40.86 46.5147C40.2687 46.8792 39.567 47.0614 38.7557 47.0614ZM38.06 44.5618C38.4078 44.5618 38.7148 44.475 38.9817 44.3014C39.2487 44.1279 39.4626 43.8874 39.6252 43.5811C39.787 43.2747 39.8687 42.9188 39.8687 42.5135C39.8687 42.1082 39.793 41.7523 39.6426 41.446C39.5022 41.1516 39.2824 40.9021 39.0078 40.7256C38.7348 40.552 38.4252 40.4652 38.0774 40.4652C37.7296 40.4652 37.4191 40.552 37.147 40.7256C36.8739 40.8992 36.6626 41.1422 36.5122 41.4547C36.3617 41.7671 36.2861 42.1204 36.2861 42.5135C36.2861 42.9188 36.3617 43.2747 36.5122 43.5811C36.6626 43.8874 36.8713 44.1279 37.1383 44.3014C37.4044 44.475 37.7122 44.5618 38.06 44.5618ZM52.3209 47.0614C51.7174 47.0614 51.1087 46.9573 50.4939 46.749C49.8791 46.5407 49.3313 46.2395 48.8504 45.8464C48.379 45.467 48.026 44.9611 47.8331 44.3882L50.4765 43.7633C50.6504 44.0645 50.8852 44.2867 51.1809 44.4316C51.4765 44.5766 51.7922 44.6486 52.1287 44.6486C52.6391 44.6486 53.053 44.495 53.3722 44.1886C53.6913 43.8814 53.8504 43.4682 53.8504 42.9475C53.8504 42.4727 53.6974 42.0709 53.3896 41.7411C53.0826 41.4113 52.6617 41.2463 52.1287 41.2463C51.8044 41.2463 51.5174 41.3219 51.2678 41.472C51.0183 41.623 50.8357 41.8018 50.72 42.0101L48.1983 41.4547L48.9983 34.7022H56.0591V37.2365H51.3635L51.0157 39.7188C51.3165 39.5452 51.6591 39.409 52.0417 39.3109C52.4244 39.2128 52.8417 39.1633 53.2939 39.1633C53.9029 39.1726 54.4989 39.3399 55.0234 39.6488C55.5479 39.9577 55.9828 40.3976 56.2852 40.9252C56.5983 41.4633 56.7548 42.0856 56.7548 42.7913C56.7548 43.6357 56.5635 44.3796 56.1809 45.0218C55.7983 45.6641 55.2765 46.1649 54.6157 46.5233C53.9548 46.8818 53.1904 47.0614 52.3209 47.0614ZM62.9983 47.0614C62.0009 47.0614 61.1139 46.7924 60.3374 46.2543C59.5609 45.7162 58.9548 44.9758 58.52 44.0324C58.0852 43.089 57.8678 42.004 57.8678 40.7777C57.8678 39.5513 58.0852 38.4664 58.52 37.523C58.9548 36.5795 59.5574 35.8392 60.3287 35.3011C61.1 34.763 61.9835 34.4939 62.9809 34.4939C63.9896 34.4939 64.8826 34.763 65.6591 35.3011C66.4357 35.8392 67.047 36.5795 67.4939 37.523C67.9409 38.4664 68.1635 39.5513 68.1635 40.7777C68.1635 42.004 67.9426 43.089 67.5026 44.0324C67.0626 44.9758 66.4531 45.7162 65.6765 46.2543C64.8991 46.7924 64.007 47.0614 62.9983 47.0614ZM63.0157 44.5271C63.4791 44.5271 63.8939 44.3648 64.2591 44.0411C64.6244 43.7173 64.9113 43.2747 65.12 42.7131C65.3287 42.1516 65.4331 41.5067 65.4331 40.7777C65.4331 40.0373 65.3287 39.3838 65.12 38.8162C64.9113 38.2494 64.6209 37.8033 64.2504 37.4796C63.9031 37.1646 63.4501 36.9912 62.9809 36.9935C62.5165 36.9935 62.1052 37.155 61.7461 37.4796C61.3861 37.8033 61.1052 38.2494 60.9026 38.8162C60.7 39.3829 60.5983 40.0373 60.5983 40.7777C60.5983 41.5067 60.6991 42.1551 60.9026 42.7218C61.1061 43.2886 61.3896 43.7312 61.7548 44.0497C62.12 44.3683 62.54 44.5271 63.0157 44.5271ZM12.0991 57.322C11.9635 57.322 11.8383 57.3056 11.72 57.2726C11.6093 57.2421 11.5038 57.1953 11.407 57.1337C11.3148 57.073 11.2391 57.0061 11.1791 56.9324C11.1191 56.8586 11.08 56.7813 11.0617 56.6997L11.5748 56.547C11.6106 56.6369 11.6715 56.7147 11.7504 56.7709C11.8357 56.8325 11.9417 56.8664 12.0687 56.8673C12.1854 56.8754 12.3015 56.8449 12.3991 56.7805C12.4388 56.7549 12.4714 56.7199 12.4939 56.6784C12.5164 56.637 12.5281 56.5906 12.5278 56.5435C12.5283 56.5028 12.5193 56.4625 12.5017 56.4258C12.4841 56.3891 12.4582 56.3569 12.4261 56.3317C12.3448 56.2675 12.2499 56.2224 12.1487 56.1998L11.8009 56.1078C11.6781 56.0781 11.5615 56.027 11.4565 55.9568C11.3566 55.8925 11.2749 55.8037 11.2194 55.6988C11.1638 55.5939 11.1361 55.4765 11.1391 55.3579C11.1391 55.108 11.2217 54.911 11.3896 54.7686C11.5565 54.628 11.7931 54.5568 12.0991 54.5568C12.2704 54.5568 12.42 54.5829 12.5487 54.6315C12.6702 54.6769 12.7801 54.7487 12.8704 54.8418C12.9606 54.9349 13.029 55.0469 13.0704 55.1696L12.5617 55.325C12.5295 55.236 12.471 55.1588 12.3939 55.1036C12.3036 55.0393 12.1943 55.0069 12.0835 55.0116C11.9763 55.0054 11.8704 55.0364 11.7835 55.0993C11.7473 55.1294 11.7187 55.1675 11.6998 55.2106C11.6809 55.2537 11.6724 55.3006 11.6748 55.3475C11.6748 55.4317 11.7035 55.4977 11.7609 55.5471C11.8301 55.6006 11.9103 55.6382 11.9957 55.6574L12.3478 55.745C12.5774 55.8014 12.7565 55.9013 12.8835 56.0471C13.0113 56.192 13.0748 56.3543 13.0748 56.5322C13.0748 56.6893 13.0365 56.8273 12.96 56.9462C12.8835 57.0643 12.7722 57.1571 12.627 57.224C12.4817 57.2908 12.3052 57.322 12.0991 57.322ZM14.9531 57.3307C14.7528 57.3354 14.5545 57.2907 14.3757 57.2005C14.2122 57.1137 14.087 56.9922 13.9991 56.836C13.9073 56.6652 13.8617 56.4734 13.867 56.2797V54.6028H14.3904V56.2797C14.3904 56.3942 14.4148 56.4949 14.4617 56.5791C14.5087 56.665 14.5748 56.7301 14.6609 56.7761C14.7461 56.8221 14.8461 56.8456 14.9609 56.8456C15.0757 56.8456 15.1757 56.8221 15.2609 56.7761C15.3457 56.7318 15.4153 56.6632 15.4609 56.5791C15.5093 56.4869 15.5333 56.3838 15.5304 56.2797V54.6028H16.0548V56.2797C16.0548 56.494 16.0096 56.6789 15.9191 56.8351C15.8287 56.9914 15.7017 57.1129 15.5365 57.1997C15.3722 57.2865 15.1774 57.3299 14.9539 57.3299L14.9531 57.3307ZM16.9809 57.276V54.6028H17.9757C18.1644 54.6028 18.3322 54.641 18.4774 54.7157C18.6208 54.7875 18.7405 54.8989 18.8225 55.0365C18.9045 55.1742 18.9453 55.3324 18.94 55.4925C18.94 55.666 18.9 55.8197 18.8217 55.9559C18.744 56.0893 18.6316 56.1994 18.4965 56.2745C18.3583 56.3526 18.1991 56.3908 18.0183 56.3908H17.5052V57.276H16.9809ZM17.5052 55.9099H18.007C18.1244 55.9099 18.22 55.8709 18.2957 55.7928C18.3713 55.7146 18.4087 55.6148 18.4087 55.4925C18.4087 55.3701 18.367 55.2711 18.2844 55.1956C18.2017 55.1201 18.0948 55.0811 17.9644 55.0811H17.5052V55.9099ZM19.6713 57.276V54.6028H20.6661C20.8539 54.6028 21.0217 54.641 21.167 54.7157C21.3105 54.7874 21.4305 54.8987 21.5126 55.0364C21.5947 55.174 21.6356 55.3323 21.6304 55.4925C21.6304 55.666 21.5904 55.8197 21.5113 55.9559C21.4335 56.0893 21.3212 56.1994 21.1861 56.2745C21.0487 56.3526 20.8887 56.3908 20.7078 56.3908H20.1948V57.276H19.6713ZM20.1948 55.9099H20.6965C20.8139 55.9099 20.9104 55.8709 20.9852 55.7928C21.06 55.7146 21.0983 55.6148 21.0983 55.4925C21.0983 55.3701 21.0565 55.2711 20.9739 55.1956C20.8913 55.1201 20.7844 55.0811 20.6548 55.0811H20.1948V55.9099ZM22.3609 57.276V54.6028H22.8844V56.7996H24.0635V57.276H22.3609ZM25.3148 56.172L24.3504 54.6028H24.9478L25.8087 56.0471L25.3148 56.172ZM25.3 57.276V55.9933H25.8235V57.276H25.3ZM25.8087 56.172L25.3148 56.0471L26.1757 54.6028H26.7731L25.8078 56.1729L25.8087 56.172ZM29.9478 57.322C29.6887 57.322 29.4574 57.2622 29.2557 57.145C29.0557 57.0282 28.8918 56.8589 28.7817 56.6555C28.664 56.4357 28.6047 56.1895 28.6096 55.9403C28.6096 55.6695 28.667 55.4317 28.7817 55.2234C28.8965 55.016 29.0539 54.8537 29.2539 54.7348C29.4539 54.6159 29.6844 54.5568 29.9444 54.5568C30.29 54.5551 30.6228 54.6877 30.8722 54.9266C30.9913 55.042 31.0826 55.1748 31.1461 55.325L30.6591 55.5046C30.5758 55.3211 30.4275 55.1749 30.2426 55.0941C30.1484 55.054 30.0468 55.0339 29.9444 55.0351C29.7982 55.0324 29.6544 55.0722 29.5304 55.1495C29.4065 55.2268 29.3077 55.3384 29.2461 55.4708C29.1791 55.6044 29.1452 55.7624 29.1452 55.9394C29.1452 56.1165 29.18 56.2762 29.2478 56.4116C29.3157 56.547 29.413 56.6546 29.5348 56.7319C29.6607 56.8109 29.8069 56.8516 29.9557 56.849C30.0578 56.8505 30.159 56.8301 30.2525 56.789C30.346 56.748 30.4295 56.6873 30.4974 56.6112C30.567 56.5383 30.6244 56.4533 30.6678 56.3552L31.1539 56.5314C31.091 56.6856 30.9979 56.8258 30.88 56.9436C30.7589 57.0671 30.6136 57.1644 30.4533 57.2295C30.2929 57.2946 30.1209 57.3261 29.9478 57.322ZM31.9226 57.276V54.5994H32.447V57.276H31.9226ZM32.313 56.1503V55.6687H33.9357V56.1503H32.313ZM33.687 57.276V54.6028H34.2104V57.276H33.687ZM34.9148 57.276L35.9704 54.6028H36.4948L35.4687 57.276H34.9148ZM35.4122 56.6876V56.2267H37.0904V56.6876H35.4122ZM37.0296 57.276L36.0044 54.6028H36.5287L37.5852 57.276H37.0304H37.0296ZM38.2887 57.276V54.6028H38.8131V57.276H38.2887ZM39.7774 57.276V54.6028H40.3244L41.6331 56.3977V54.6028H42.153V57.276H41.6331L40.3009 55.4473V57.276H39.7774ZM45.0922 57.3264C44.9331 57.3264 44.793 57.2951 44.6713 57.2344C44.5496 57.1736 44.453 57.0894 44.3844 56.9827C44.3157 56.8759 44.28 56.7518 44.28 56.6112C44.28 56.5157 44.2983 56.4263 44.3348 56.3448C44.3704 56.2632 44.42 56.1885 44.4826 56.1174C44.5452 56.0462 44.6183 55.9863 44.6983 55.9316L45.2026 55.5845C45.2435 55.5576 45.2878 55.5246 45.3348 55.489C45.3828 55.4528 45.4253 55.4098 45.4609 55.3614C45.4978 55.3124 45.5174 55.2526 45.5165 55.1913C45.518 55.1581 45.5116 55.125 45.4976 55.0948C45.4837 55.0646 45.4628 55.0382 45.4365 55.0177C45.3781 54.9737 45.3062 54.9514 45.233 54.9544C45.1629 54.9517 45.0942 54.9749 45.04 55.0194C45.0148 55.0395 44.9945 55.0652 44.981 55.0944C44.9674 55.1236 44.9608 55.1556 44.9617 55.1878C44.9617 55.2538 44.9817 55.3111 45.0235 55.3614L45.1644 55.535L45.6739 56.146L46.6104 57.276H46.0217L45.3096 56.4281L44.7748 55.7789C44.7153 55.7028 44.6584 55.6246 44.6044 55.5445C44.5642 55.4862 44.5312 55.4233 44.5061 55.3571C44.4781 55.2745 44.4696 55.1866 44.4812 55.1002C44.4928 55.0138 44.5243 54.9312 44.5731 54.8589C44.6391 54.766 44.7261 54.6914 44.8374 54.6358C44.9487 54.5803 45.0722 54.5534 45.2104 54.5534C45.3617 54.5534 45.4948 54.5811 45.6122 54.6358C45.7296 54.6914 45.8209 54.766 45.8896 54.8632C45.9583 54.9604 45.9904 55.0733 45.9904 55.2026C45.9904 55.3067 45.9644 55.4031 45.9104 55.4907C45.8565 55.5784 45.7783 55.6678 45.6757 55.7572C45.5548 55.859 45.4288 55.9545 45.2983 56.0436L45.027 56.2302C44.9862 56.2582 44.9484 56.2902 44.9139 56.3257C44.8772 56.3614 44.8482 56.4042 44.8288 56.4515C44.8093 56.4988 44.7998 56.5497 44.8009 56.6008C44.8009 56.6876 44.8313 56.7588 44.8904 56.8152C44.9513 56.8707 45.0287 56.8985 45.1226 56.8985C45.2296 56.8985 45.3348 56.882 45.44 56.849C45.5444 56.816 45.64 56.7657 45.7244 56.6997C45.8125 56.6322 45.8832 56.5447 45.9309 56.4445C45.9785 56.3443 46.0016 56.2343 45.9983 56.1234H46.4696C46.4696 56.3578 46.4096 56.5661 46.2931 56.7475C46.1757 56.9297 46.0148 57.0712 45.807 57.1736C45.5838 57.2791 45.3391 57.3314 45.0922 57.3264ZM48.5609 57.276V54.6028H49.0861V56.7996H50.2635V57.276H48.5609ZM52.1696 57.322C51.9 57.322 51.66 57.2622 51.4522 57.145C51.2474 57.0299 51.0786 56.8604 50.9644 56.6555C50.8444 56.4377 50.7839 56.1923 50.7887 55.9438C50.7887 55.6704 50.847 55.4317 50.9644 55.2234C51.0817 55.016 51.2426 54.8537 51.4487 54.7374C51.6548 54.6211 51.8896 54.5612 52.1583 54.5612C52.4278 54.5612 52.6661 54.6211 52.8713 54.7382C53.0774 54.8571 53.2383 55.0194 53.3557 55.2277C53.473 55.436 53.5313 55.6739 53.5313 55.9438C53.5313 56.2111 53.4739 56.4489 53.3574 56.6555C53.2409 56.8638 53.08 57.027 52.8757 57.145C52.6602 57.2654 52.4165 57.3265 52.1696 57.322ZM52.1696 56.8447C52.3187 56.8477 52.4657 56.8084 52.5935 56.7315C52.7212 56.6545 52.8245 56.543 52.8913 56.4099C52.9609 56.2745 52.9957 56.12 52.9957 55.9438C52.9957 55.7659 52.96 55.6088 52.8887 55.4742C52.82 55.3406 52.7151 55.229 52.586 55.152C52.4569 55.0749 52.3087 55.0356 52.1583 55.0385C52.0084 55.0359 51.8607 55.0753 51.7322 55.1523C51.6037 55.2294 51.4994 55.3409 51.4313 55.4742C51.3574 55.6193 51.3204 55.7802 51.3235 55.9429C51.3235 56.12 51.36 56.2745 51.4313 56.4099C51.5014 56.544 51.6077 56.6559 51.7381 56.7329C51.8686 56.8099 52.018 56.8481 52.1696 56.8447ZM55.5826 57.322C55.3096 57.322 55.0687 57.2622 54.8574 57.145C54.6461 57.0278 54.4826 56.8629 54.3617 56.6555C54.2393 56.4373 54.1775 56.1904 54.1826 55.9403C54.1826 55.6695 54.2417 55.4317 54.3617 55.2234C54.4826 55.016 54.647 54.8537 54.8574 54.7348C55.0678 54.6159 55.3096 54.5568 55.5826 54.5568C55.7461 54.5568 55.8957 54.5811 56.0348 54.6297C56.2946 54.7193 56.5169 54.8932 56.6661 55.1236L56.2365 55.3892C56.1908 55.3192 56.1335 55.2576 56.067 55.2069C55.9974 55.154 55.9191 55.1114 55.8357 55.0811C55.7522 55.0507 55.667 55.0351 55.5835 55.0351C55.4264 55.0321 55.2714 55.0724 55.1357 55.1514C55.006 55.2278 54.8998 55.3383 54.8287 55.4708C54.7525 55.6154 54.7145 55.777 54.7183 55.9403C54.7183 56.1156 54.7548 56.2727 54.8278 56.4099C54.8973 56.5445 55.0042 56.6563 55.1357 56.7319C55.2678 56.81 55.4209 56.849 55.5939 56.849C55.7191 56.8509 55.843 56.8236 55.9557 56.7692C56.0617 56.7154 56.1452 56.6407 56.2061 56.5435C56.267 56.4463 56.2983 56.3352 56.2983 56.2076L56.7957 56.1313C56.7957 56.383 56.7435 56.5982 56.6417 56.7761C56.5374 56.954 56.3948 57.0894 56.2122 57.1832C56.0296 57.2769 55.82 57.322 55.5826 57.322ZM55.6704 56.2528V55.8448H56.7957V56.1694L56.513 56.2528H55.6704ZM57.5339 57.276V54.6028H58.0583V57.276H57.5339ZM59.9217 57.322C59.7861 57.322 59.66 57.3056 59.5426 57.2726C59.4252 57.2396 59.3209 57.1927 59.2296 57.1337C59.1436 57.0789 59.0667 57.0109 59.0017 56.9324C58.9447 56.8652 58.9045 56.7855 58.8844 56.6997L59.3974 56.547C59.4332 56.6369 59.4942 56.7147 59.5731 56.7709C59.6574 56.8325 59.7644 56.8664 59.8904 56.8673C60.0074 56.8754 60.1239 56.8449 60.2217 56.7805C60.2615 56.755 60.2941 56.7199 60.3166 56.6785C60.3391 56.6371 60.3507 56.5906 60.3504 56.5435C60.3509 56.5028 60.342 56.4625 60.3244 56.4258C60.3067 56.389 60.2808 56.3569 60.2487 56.3317C60.1675 56.2673 60.0726 56.2222 59.9713 56.1998L59.6235 56.1078C59.493 56.0748 59.3783 56.0254 59.2783 55.9568C59.1783 55.8882 59.1009 55.8067 59.0452 55.706C58.9871 55.5996 58.9581 55.4799 58.9609 55.3588C58.9609 55.1071 59.0452 54.911 59.2113 54.7686C59.3791 54.628 59.6157 54.5568 59.9217 54.5568C60.0922 54.5568 60.2426 54.5829 60.3713 54.6315C60.4929 54.6768 60.6028 54.7487 60.693 54.8417C60.7833 54.9348 60.8516 55.0468 60.893 55.1696L60.3844 55.325C60.3518 55.2359 60.293 55.1588 60.2157 55.1036C60.1256 55.0395 60.0167 55.0071 59.9061 55.0116C59.7989 55.0053 59.6929 55.0363 59.6061 55.0993C59.5697 55.1293 59.5408 55.1673 59.5218 55.2104C59.5028 55.2535 59.4941 55.3005 59.4965 55.3475C59.4965 55.4317 59.5261 55.4977 59.5826 55.5471C59.6521 55.6007 59.7326 55.6383 59.8183 55.6574L60.1704 55.745C60.3991 55.8014 60.5791 55.9013 60.7061 56.0471C60.8331 56.192 60.8974 56.3543 60.8974 56.5322C60.8974 56.6893 60.8591 56.8273 60.7826 56.9462C60.7061 57.0643 60.5948 57.1571 60.4496 57.224C60.3044 57.2908 60.1287 57.322 59.9217 57.322ZM62.2931 57.276V55.0802H61.4904V54.6028H63.6174V55.0802H62.8174V57.276H62.2931ZM64.3444 57.276V54.6028H64.8687V57.276H64.3444ZM67.0148 57.322C66.7539 57.322 66.5235 57.2622 66.3218 57.145C66.12 57.0278 65.9626 56.8629 65.847 56.6555C65.7294 56.4357 65.6705 56.1894 65.6757 55.9403C65.6757 55.6695 65.7322 55.4317 65.847 55.2234C65.9626 55.016 66.12 54.8537 66.32 54.7348C66.52 54.6159 66.7504 54.5568 67.0104 54.5568C67.3561 54.5551 67.6889 54.6877 67.9383 54.9266C68.0565 55.042 68.1478 55.1748 68.2122 55.325L67.7261 55.5046C67.6424 55.3211 67.4937 55.1749 67.3087 55.0941C67.2144 55.0542 67.1129 55.0341 67.0104 55.0351C66.8643 55.0326 66.7206 55.0725 66.5967 55.1498C66.4728 55.2271 66.374 55.3386 66.3122 55.4708C66.2444 55.6044 66.2104 55.7624 66.2104 55.9394C66.2104 56.1165 66.2452 56.2762 66.3148 56.4116C66.3844 56.547 66.4791 56.6546 66.6017 56.7319C66.7276 56.8109 66.8739 56.8516 67.0226 56.849C67.1258 56.85 67.2279 56.8283 67.3217 56.7857C67.4128 56.744 67.495 56.6851 67.5635 56.6121C67.635 56.5372 67.6928 56.4502 67.7339 56.3552L68.22 56.5314C68.157 56.6855 68.0639 56.8257 67.9461 56.9436C67.8251 57.067 67.68 57.1642 67.5198 57.2293C67.3596 57.2944 67.1877 57.326 67.0148 57.322ZM69.887 57.322C69.7522 57.322 69.6261 57.3056 69.5087 57.2726C69.3913 57.2396 69.287 57.1927 69.1957 57.1337C69.1097 57.0789 69.0328 57.0109 68.9678 56.9324C68.9108 56.8652 68.8706 56.7855 68.8504 56.6997L69.3635 56.547C69.3993 56.6369 69.4602 56.7147 69.5391 56.7709C69.6235 56.8325 69.7296 56.8664 69.8565 56.8673C69.9735 56.8754 70.0899 56.8449 70.1878 56.7805C70.2276 56.755 70.2602 56.7199 70.2827 56.6785C70.3052 56.6371 70.3168 56.5906 70.3165 56.5435C70.317 56.5028 70.3081 56.4625 70.2905 56.4258C70.2728 56.389 70.2469 56.3569 70.2148 56.3317C70.1336 56.2673 70.0387 56.2222 69.9374 56.1998L69.5896 56.1078C69.4591 56.0748 69.3444 56.0254 69.2444 55.9568C69.1444 55.8882 69.067 55.8067 69.0113 55.706C68.9532 55.5996 68.9241 55.4799 68.927 55.3588C68.927 55.1071 69.0113 54.911 69.1774 54.7686C69.3444 54.628 69.5817 54.5568 69.887 54.5568C70.0583 54.5568 70.2087 54.5829 70.3374 54.6315C70.459 54.6768 70.5689 54.7487 70.6591 54.8417C70.7494 54.9348 70.8177 55.0468 70.8591 55.1696L70.3504 55.325C70.3178 55.2359 70.259 55.1588 70.1817 55.1036C70.0917 55.0395 69.9827 55.0071 69.8722 55.0116C69.765 55.0053 69.659 55.0363 69.5722 55.0993C69.5358 55.1293 69.5069 55.1673 69.4879 55.2104C69.4689 55.2535 69.4602 55.3005 69.4626 55.3475C69.4626 55.4317 69.4913 55.4977 69.5487 55.5471C69.6182 55.6007 69.6987 55.6383 69.7844 55.6574L70.1365 55.745C70.3652 55.8014 70.5452 55.9013 70.6722 56.0471C70.7991 56.192 70.8635 56.3543 70.8635 56.5322C70.8635 56.6893 70.8252 56.8273 70.7487 56.9462C70.6722 57.0643 70.5609 57.1571 70.4157 57.224C70.2704 57.2908 70.0931 57.322 69.887 57.322ZM29.6722 61.8587V59.1855H30.667C30.8557 59.1855 31.0226 59.2237 31.1678 59.2983C31.3118 59.3698 31.4321 59.4811 31.5143 59.619C31.5965 59.757 31.6371 59.9156 31.6313 60.076C31.6313 60.2487 31.5913 60.4032 31.5122 60.5377C31.4346 60.6713 31.3222 60.7814 31.187 60.8562C31.0496 60.9343 30.8896 60.9734 30.7087 60.9734H30.1957V61.8587H29.6722ZM30.1957 60.4917H30.6974C30.7511 60.4935 30.8045 60.484 30.8542 60.4638C30.904 60.4436 30.9489 60.4132 30.9861 60.3745C31.0239 60.3348 31.0533 60.2879 31.0727 60.2366C31.0921 60.1854 31.1011 60.1307 31.0991 60.076C31.0991 59.9527 31.0574 59.8547 30.9748 59.7783C30.8922 59.7019 30.7852 59.6628 30.6557 59.6628H30.1957V60.4917ZM32.3617 61.8587V59.1855H33.3565C33.5452 59.1855 33.713 59.2219 33.8574 59.2966C34.0035 59.3703 34.1165 59.471 34.1983 59.6003C34.28 59.7297 34.32 59.8781 34.32 60.0491C34.32 60.2174 34.2774 60.3659 34.1922 60.4978C34.1058 60.6297 33.9845 60.7351 33.8417 60.8024C33.6939 60.8753 33.5261 60.9118 33.3374 60.9118H32.8852V61.8587H32.3617ZM32.8852 60.4344H33.36C33.4391 60.4344 33.5104 60.4179 33.573 60.385C33.6357 60.352 33.6844 60.3068 33.7209 60.2478C33.7583 60.1883 33.778 60.1193 33.7774 60.0491C33.7774 59.9345 33.7357 59.8408 33.653 59.7696C33.5704 59.6984 33.4635 59.6628 33.3339 59.6628H32.8861L32.8852 60.4344ZM33.8348 61.8587L33.2148 60.7859L33.6165 60.4995L34.4278 61.8587H33.8348ZM36.4365 61.9047C36.1661 61.9047 35.927 61.8457 35.7191 61.7276C35.5104 61.6087 35.3487 61.4464 35.2313 61.2381C35.1139 61.0298 35.0548 60.7937 35.0548 60.5264C35.0548 60.2539 35.1139 60.0143 35.2313 59.806C35.3487 59.5977 35.5096 59.4363 35.7148 59.32C35.92 59.202 36.1574 59.1438 36.4244 59.1438C36.6948 59.1438 36.933 59.2037 37.1383 59.3209C37.3435 59.4389 37.5052 59.603 37.6226 59.8104C37.74 60.017 37.7983 60.2565 37.7983 60.5256C37.7983 60.7937 37.74 61.0307 37.6244 61.239C37.5116 61.4431 37.3446 61.6122 37.1417 61.7276C36.9263 61.8481 36.6835 61.9092 36.4365 61.9047ZM36.4365 61.4273C36.5858 61.4305 36.733 61.3911 36.8607 61.314C36.9885 61.2369 37.0917 61.1251 37.1583 60.9916C37.2278 60.8571 37.2626 60.7017 37.2626 60.5256C37.2626 60.3476 37.2278 60.1914 37.1557 60.0569C37.0878 59.926 36.986 59.8157 36.8609 59.7375C36.7295 59.6577 36.5781 59.6171 36.4244 59.6203C36.2745 59.6177 36.1268 59.6571 35.9983 59.7341C35.8698 59.8112 35.7655 59.9227 35.6974 60.056C35.6237 60.2014 35.587 60.3627 35.5904 60.5256C35.5904 60.7017 35.6261 60.8571 35.6974 60.9916C35.7656 61.1234 35.8692 61.2337 35.9965 61.3102C36.1293 61.3896 36.2818 61.4302 36.4365 61.4273ZM38.6061 61.8587V59.1855H39.4626C39.7357 59.1855 39.9774 59.2428 40.1878 59.3573C40.3983 59.4719 40.5626 59.629 40.6809 59.8286C40.8 60.0282 40.8591 60.2591 40.8591 60.523C40.8591 60.7816 40.8 61.0125 40.6809 61.2138C40.5634 61.4139 40.3928 61.5776 40.1878 61.6868C39.9774 61.8023 39.7357 61.8587 39.4626 61.8587H38.6061ZM39.1296 61.37H39.4626C39.6915 61.3728 39.9122 61.2852 40.0765 61.1262C40.1547 61.0495 40.2168 60.958 40.2591 60.8571C40.303 60.7509 40.3248 60.6369 40.3235 60.5221C40.3244 60.4075 40.3022 60.2938 40.2583 60.1879C40.2164 60.0866 40.1545 59.9947 40.0764 59.9176C39.9983 59.8405 39.9055 59.7799 39.8035 59.7392C39.6951 59.6958 39.5793 59.674 39.4626 59.675H39.1296V61.37ZM42.7148 61.9125C42.493 61.9125 42.3 61.8691 42.1374 61.7823C41.9748 61.6955 41.8487 61.5749 41.7609 61.4178C41.669 61.2473 41.6234 61.0558 41.6287 60.8623V59.1855H42.1522V60.8623C42.1522 60.9769 42.1757 61.0767 42.2226 61.1617C42.2704 61.2485 42.3365 61.3119 42.4226 61.3588C42.507 61.4048 42.6078 61.4282 42.7217 61.4282C42.8357 61.4282 42.9374 61.4048 43.0226 61.3588C43.1072 61.3143 43.1765 61.2457 43.2217 61.1617C43.2711 61.0698 43.2956 60.9666 43.2931 60.8623V59.1855H43.8165V60.8623C43.8165 61.0767 43.7704 61.2616 43.6809 61.4178C43.5914 61.5737 43.4585 61.7003 43.2983 61.7823C43.1339 61.8691 42.9383 61.9125 42.7148 61.9125ZM45.9252 61.9047C45.6652 61.9047 45.4348 61.8457 45.2322 61.7276C45.0313 61.6087 44.873 61.4464 44.7583 61.2381C44.6435 61.0298 44.5861 60.792 44.5861 60.5221C44.5861 60.2522 44.6435 60.0135 44.7583 59.806C44.873 59.5986 45.0304 59.4354 45.2304 59.3174C45.4304 59.1994 45.6609 59.1395 45.9209 59.1395C46.1052 59.1395 46.2757 59.1733 46.4339 59.2376C46.7423 59.3622 46.9895 59.6024 47.1226 59.9067L46.6357 60.0864C46.5529 59.9031 46.4047 59.757 46.22 59.6767C46.1254 59.6366 46.0236 59.6162 45.9209 59.6168C45.7741 59.6143 45.6298 59.6551 45.5061 59.734C45.3842 59.8123 45.2861 59.9225 45.2226 60.0525C45.1557 60.1871 45.1217 60.3442 45.1217 60.5221C45.1217 60.7 45.1565 60.858 45.2244 60.9934C45.2939 61.1296 45.3896 61.2373 45.5113 61.3145C45.633 61.3917 45.7748 61.4308 45.933 61.4308C46.0367 61.4325 46.1395 61.4111 46.2339 61.3683C46.3235 61.3249 46.4035 61.2685 46.4739 61.1947C46.5444 61.121 46.6 61.0359 46.6444 60.9387L47.1304 61.114C47.0316 61.3509 46.864 61.5528 46.6492 61.6937C46.4344 61.8346 46.1823 61.9081 45.9252 61.9047ZM48.4652 61.8587V59.6628H47.6617V59.1855H49.7887V59.6628H48.9904V61.8587H48.4652ZM51.4148 61.9047C51.28 61.9047 51.1539 61.8882 51.0365 61.8543C50.9191 61.8222 50.8148 61.7754 50.7235 61.7155C50.6322 61.6556 50.5548 61.5888 50.4957 61.5159C50.4385 61.4481 50.3982 61.3678 50.3783 61.2815L50.8913 61.1288C50.9244 61.2156 50.9826 61.2902 51.067 61.3527C51.1513 61.4152 51.2574 61.4482 51.3844 61.4508C51.5014 61.4583 51.6177 61.4275 51.7157 61.3631C51.7553 61.3375 51.7878 61.3024 51.8103 61.261C51.8328 61.2196 51.8445 61.1733 51.8444 61.1262C51.8447 61.0852 51.8356 61.0448 51.8178 61.0079C51.8 60.9711 51.774 60.9388 51.7417 60.9135C51.6608 60.8492 51.5662 60.8041 51.4652 60.7816L51.1174 60.6905C50.9942 60.6611 50.8773 60.61 50.7722 60.5394C50.673 60.4726 50.5948 60.3884 50.5391 60.2895C50.4835 60.1905 50.4548 60.0751 50.4548 59.9423C50.4548 59.6906 50.5391 59.4936 50.7052 59.3521C50.8722 59.2107 51.1096 59.1403 51.4148 59.1403C51.5861 59.1403 51.7365 59.1647 51.8652 59.2141C51.9867 59.2594 52.0966 59.3311 52.1868 59.424C52.2771 59.5169 52.3454 59.6288 52.387 59.7514L51.8783 59.9076C51.8458 59.8185 51.7869 59.7413 51.7096 59.6863C51.6195 59.6221 51.5106 59.5898 51.4 59.5943C51.2927 59.5882 51.1867 59.6195 51.1 59.6828C51.0635 59.7127 51.0346 59.7507 51.0155 59.7939C50.9965 59.837 50.9879 59.884 50.9904 59.931C50.9904 60.0144 51.0191 60.0812 51.0765 60.1289C51.1458 60.1828 51.2264 60.2205 51.3122 60.2391L51.6644 60.3277C51.893 60.3832 52.0731 60.4839 52.2 60.6288C52.327 60.7747 52.3913 60.9361 52.3913 61.114C52.3945 61.2608 52.3546 61.4053 52.2765 61.5297C52.2 61.6469 52.0887 61.7398 51.9435 61.8057C51.7983 61.8717 51.6217 61.9047 51.4148 61.9047Z" fill="black"></path></svg>