<svg xmlns="http://www.w3.org/2000/svg" width="90" height="90" viewBox="0 0 90 90" fill="none"><g clip-path="url(#clip0_2618_681)"><path d="M45 90C69.85 90 90 69.85 90 45C90 20.15 69.85 0 45 0C20.15 0 0 20.15 0 45C0 69.85 20.15 90 45 90Z" fill="white"></path><mask id="mask0_2618_681" style="mask-type:luminance" maskUnits="userSpaceOnUse" x="5" y="13" width="80" height="69"><path d="M12.9099 13.4602C10.0899 16.3302 7.64992 19.5802 5.66992 23.1202V66.8902C8.93992 72.7502 13.4799 77.8002 18.9099 81.6802H71.0799C76.5199 77.8102 81.0599 72.7502 84.3199 66.8902V23.1102C82.3499 19.5702 79.9099 16.3202 77.0799 13.4502H12.9099V13.4602Z" fill="white"></path></mask><g mask="url(#mask0_2618_681)"><path d="M25.0696 35.2197C25.0696 35.9897 25.0896 38.2196 25.0996 38.4496C25.1296 38.8096 25.2996 38.9697 25.6396 38.9697H26.6896C26.7996 38.9697 26.8196 39.0196 26.8196 39.0896V39.4796C26.8196 39.5596 26.7996 39.6096 26.6696 39.6096C26.4396 39.6096 25.9296 39.5597 24.3896 39.5597C22.9496 39.5597 22.3096 39.6096 22.1296 39.6096C22.0096 39.6096 21.9996 39.5596 21.9996 39.4996V39.0896C21.9996 39.0096 22.0196 38.9697 22.0996 38.9697H22.8096C23.3696 38.9697 23.4796 38.8896 23.5296 38.4496C23.5496 38.2896 23.5996 35.7296 23.5996 33.8196V31.9296C23.5996 30.8496 23.5796 29.0596 23.5696 28.8896C23.5396 28.5596 23.3696 28.5296 22.9296 28.5296H21.9896C21.9096 28.5296 21.8896 28.4996 21.8896 28.3996V28.0096C21.8896 27.9296 21.9096 27.8896 21.9896 27.8896C22.1696 27.8896 22.7596 27.9396 24.3196 27.9396C24.6196 27.9396 25.5796 27.8896 26.1196 27.8896C27.9696 27.8896 28.8396 28.0696 29.7796 28.7096C30.5496 29.2296 31.0296 30.1496 31.0296 31.0896C31.0296 33.1596 29.4696 34.4396 26.8596 34.4396C26.2496 34.4396 25.5996 34.4196 25.0696 34.3596V35.2096V35.2197ZM25.0696 33.7696C25.3996 33.8696 25.9396 33.9196 26.5796 33.9196C27.5796 33.9196 28.4696 33.3796 28.8896 32.7996C29.2496 32.3196 29.3196 31.7196 29.3196 31.1396C29.3196 28.9896 27.3196 28.4196 26.3496 28.4196C26.0696 28.4196 25.3996 28.4196 25.0696 28.5296V33.7596V33.7696Z" fill="#231F20"></path><path d="M32.76 32.44C32.74 32.07 32.58 31.87 32.06 31.87H31.88C31.82 31.87 31.81 31.81 31.81 31.74V31.3C31.81 31.24 31.85 31.21 31.92 31.21C32.01 31.21 33.16 31.27 33.49 31.27C33.71 31.27 35.32 31.21 35.56 31.21C36.67 31.21 37.5 31.52 37.96 31.93C38.37 32.32 38.61 32.85 38.61 33.28C38.61 34.55 37.89 35.29 36.43 35.81V35.85C36.85 35.94 37.22 36.51 37.98 37.59C38.24 37.96 38.66 38.51 39.01 38.77C39.27 38.95 39.51 38.97 39.84 38.97C39.91 38.97 39.93 39.03 39.93 39.14V39.51C39.93 39.58 39.89 39.64 39.82 39.64C39.78 39.64 39.64 39.62 39.45 39.6C39.28 39.6 39.06 39.58 38.88 39.58C38.46 39.58 38.01 39.6 37.7 39.62C37.35 39.36 36.54 37.87 36.37 37.59C35.7 36.45 35.43 36.04 34.65 36.04C34.47 36.04 34.3 36.04 34.17 36.08V38.52C34.21 38.78 34.32 38.98 34.69 38.98H35.17C35.24 38.98 35.28 39.02 35.28 39.07V39.51C35.28 39.6 35.24 39.64 35.13 39.64C35 39.64 34 39.58 33.39 39.58C32.93 39.58 31.99 39.64 31.86 39.64C31.79 39.64 31.75 39.58 31.75 39.49V39.07C31.75 39.01 31.79 38.98 31.86 38.98H32.08C32.52 38.98 32.75 38.91 32.75 38.5C32.77 37.6 32.75 36.51 32.77 35.38V32.46L32.76 32.44ZM34.16 35.43C34.29 35.45 34.47 35.47 34.71 35.47C36.76 35.47 37.07 34.03 37.07 33.55C37.07 33 36.79 32.5 36.46 32.28C35.96 31.97 35.44 31.8 34.71 31.8C34.43 31.8 34.16 31.87 34.16 32.21V35.44V35.43Z" fill="#231F20"></path><path d="M41.2699 38.9703C40.5899 38.5303 39.6299 37.2303 39.6299 35.5003C39.6299 34.7403 39.7599 33.6403 40.6499 32.5803C41.7399 31.2703 42.8799 31.0303 44.0999 31.0303C44.9499 31.0303 45.9499 31.2003 46.8699 32.0103C47.6599 32.7103 48.3599 33.8603 48.3599 35.5203C48.3599 36.4103 48.1799 37.3103 47.6199 38.0903C46.9199 39.0903 45.8499 39.7903 43.9499 39.7903C43.2999 39.7903 42.2099 39.6103 41.2699 38.9803M46.7699 35.5603C46.7699 33.1403 45.1299 31.6803 44.0399 31.6803C43.8699 31.6803 43.0999 31.5003 42.2299 32.3603C41.5099 33.0603 41.1999 34.2403 41.1999 35.1903C41.1999 38.1303 43.1799 39.1603 44.0599 39.1603C46.5899 39.1603 46.7699 36.5603 46.7699 35.5603Z" fill="#231F20"></path><path d="M49.6701 39.1398C49.5401 39.0498 49.4301 39.0298 49.3901 39.1798L49.3401 39.3298C49.3001 39.4198 49.2101 39.4598 49.0601 39.4198C48.9501 39.3798 48.8901 39.3098 48.9101 39.2198C48.9701 38.6998 49.0901 37.2298 49.1101 36.9298C49.1301 36.8598 49.1601 36.7998 49.2401 36.7998L49.5701 36.8398C49.6401 36.8598 49.7201 36.8998 49.7201 36.9698C49.7201 37.2298 49.7201 37.6198 50.0501 38.2298C50.3301 38.7798 50.9401 39.1498 51.6201 39.1498C52.2101 39.1498 53.1001 38.6898 53.1001 37.8898C53.1001 36.8398 52.3801 36.3798 51.4001 36.0098C51.0301 35.8798 50.1401 35.5498 49.5901 35.0498C49.1701 34.6398 48.9401 34.0498 48.9401 33.1498C48.9401 32.5198 49.3301 31.9498 49.7301 31.5998C50.2101 31.2098 50.8001 31.0498 51.4601 31.0498C52.1601 31.0498 52.5501 31.1798 52.7701 31.2898C52.9501 31.3998 53.0501 31.4198 53.0801 31.3298L53.1501 31.1998C53.1901 31.1498 53.2401 31.1498 53.3901 31.1498C53.5401 31.1498 53.5601 31.2198 53.5601 31.3198C53.5601 31.9298 53.7301 33.1298 53.7401 33.3898C53.7401 33.4398 53.7201 33.4798 53.6701 33.4998L53.3401 33.5698C53.2901 33.5898 53.2501 33.5498 53.2301 33.4998C53.1201 33.2798 52.9701 32.6298 52.5801 32.1898C52.3001 31.8798 51.9001 31.6898 51.3601 31.6898C50.3401 31.6898 50.0501 32.4798 50.0501 32.8198C50.0501 33.0998 50.1401 33.4798 50.3501 33.7198C50.6301 34.0698 51.2901 34.3498 51.6401 34.4798C52.4901 34.7898 53.1701 34.9998 53.6301 35.4798C54.0001 35.8698 54.2201 36.3298 54.2201 37.2498C54.2201 38.6398 53.3301 39.8198 51.6501 39.8198C50.7101 39.8198 50.0601 39.5098 49.6401 39.1698" fill="#231F20"></path><path d="M26.4004 45.1202C26.4004 44.8202 26.3504 41.6302 26.3504 41.4902C26.3504 41.3102 26.2704 41.1002 25.8604 41.1002H25.2904C25.1904 41.1002 25.1604 41.0702 25.1604 40.9802V40.5502C25.1604 40.4802 25.1904 40.4502 25.2904 40.4502C25.4904 40.4502 25.9804 40.5002 27.2104 40.5002C28.3104 40.5002 28.8504 40.4502 29.0604 40.4502C29.1604 40.4502 29.1904 40.4802 29.1904 40.5502V40.9802C29.1904 41.0602 29.1604 41.1002 29.0804 41.1002H28.3904C28.0604 41.1002 27.9304 41.2202 27.9304 41.6102C27.9304 41.8602 27.8804 44.4202 27.8804 45.2202V46.0402H28.1804C28.4404 46.0402 28.6204 45.9702 28.8504 45.8102C29.2104 45.5502 32.2504 41.6702 32.3904 41.4602C32.5404 41.2302 32.4604 41.0702 32.2404 41.0702H32.0104C31.9404 41.0702 31.9304 41.0402 31.9304 40.9602V40.5802C31.9304 40.5002 31.9604 40.4602 32.0304 40.4602C32.2304 40.4602 32.9004 40.5102 33.6504 40.5102C34.1304 40.5102 34.7004 40.4602 34.9004 40.4602C34.9804 40.4602 35.0204 40.4902 35.0204 40.5402V40.9802C35.0204 41.0602 34.9704 41.1002 34.8904 41.1002H34.5504C34.3204 41.1002 33.9404 41.2002 33.6504 41.4102C33.0404 41.8502 30.5304 44.7602 29.8304 45.6802L34.2304 51.1302C34.5104 51.4702 34.9904 51.5402 35.3804 51.5402H35.9504C36.0304 51.5402 36.0704 51.5902 36.0704 51.6602V52.0702C36.0704 52.1502 36.0404 52.1802 35.9404 52.1802C35.7804 52.1802 35.1504 52.1302 33.9204 52.1302C32.5604 52.1302 31.9204 52.1802 31.6904 52.1802C31.6204 52.1802 31.5904 52.1502 31.5904 52.0802V51.6502C31.5904 51.5802 31.6204 51.5502 31.6904 51.5502H31.9404C32.2504 51.5502 32.2804 51.2702 32.2004 51.1102C32.0504 50.7802 29.1504 46.9402 28.9404 46.7802C28.6804 46.5702 28.4604 46.5302 28.2204 46.5302H27.9104V47.7102C27.9104 48.5302 27.9404 50.9402 27.9604 51.1702C27.9804 51.3802 28.1204 51.5302 28.3404 51.5302H29.0604C29.1404 51.5302 29.1904 51.5602 29.1904 51.6302V52.0602C29.1904 52.1302 29.1704 52.1702 29.0904 52.1702C28.8904 52.1702 28.4004 52.1202 27.2404 52.1202C25.9404 52.1202 25.4204 52.1702 25.2704 52.1702C25.1904 52.1702 25.1504 52.1402 25.1504 52.0602V51.6302C25.1504 51.5502 25.2004 51.5302 25.2704 51.5302H25.9404C26.2404 51.5302 26.3504 51.4002 26.3804 51.2302C26.4004 51.0802 26.4304 48.1102 26.4304 46.0602V45.1102L26.4004 45.1202Z" fill="#231F20"></path><path d="M44.8498 51.8998C44.8498 52.0698 44.7898 52.2498 44.5698 52.2498C44.3998 52.2498 44.2198 52.1198 44.1498 52.0698C44.0198 51.9398 43.3898 51.1798 42.6398 50.2798L40.7898 48.0798C40.3498 47.5598 38.8498 45.5698 38.5598 45.2398H38.5198V47.7698C38.5198 48.8798 38.5898 50.7198 38.6298 50.8898C38.6898 51.3098 38.8898 51.5198 39.0698 51.5198H39.4598C39.5498 51.5198 39.5498 51.5598 39.5498 51.6298V52.0698C39.5498 52.1398 39.5498 52.1798 39.4598 52.1798C39.3298 52.1798 38.5898 52.1198 38.0598 52.1198C37.7998 52.1198 36.9698 52.1798 36.8198 52.1798C36.7798 52.1798 36.7598 52.1398 36.7598 52.0498V51.5698C36.7598 51.5698 36.7798 51.5098 36.8298 51.5098H37.2498C37.4298 51.5098 37.7298 51.3798 37.7898 50.9598C37.8098 50.7398 37.8498 49.4298 37.8498 47.3398V45.3998C37.8498 44.7398 37.3898 44.4198 36.8698 44.4198H36.6998C36.6298 44.4198 36.5898 44.3798 36.5898 44.3098V43.8698C36.5898 43.8098 36.6298 43.7598 36.6998 43.7598C36.7398 43.7598 36.9398 43.7798 37.1798 43.7798C37.4198 43.7998 37.7198 43.8198 37.9198 43.8198C38.2198 43.8198 38.5998 43.7798 38.8198 43.7798C39.0798 43.7798 39.1898 43.8198 39.2598 43.9298C39.3098 43.9998 41.4398 46.6798 41.8298 47.1398C42.1598 47.5298 43.8798 49.6898 44.0998 49.9298H44.1698V48.7098C44.1698 47.6598 44.1498 47.0898 44.1098 46.4898C44.1098 46.0498 44.0498 44.9798 43.9598 44.7498C43.8698 44.5298 43.5898 44.4198 43.2798 44.4198H42.9698C42.8798 44.4198 42.8398 44.3798 42.8398 44.2898V43.8498C42.8398 43.7898 42.8798 43.7598 42.9698 43.7598C43.0998 43.7598 43.8898 43.8198 44.4798 43.8198C44.8698 43.8198 45.5098 43.7598 45.6398 43.7598C45.7298 43.7598 45.7698 43.7998 45.7698 43.9098V44.2998C45.7698 44.3698 45.7298 44.4298 45.6598 44.4298H45.4798C45.0198 44.4298 44.9298 44.5598 44.8898 44.8198C44.7998 45.6698 44.8298 46.8298 44.8298 47.5898V51.9098L44.8498 51.8998Z" fill="#231F20"></path><path d="M47.5199 51.5298C46.8399 51.0898 45.8799 49.7898 45.8799 48.0598C45.8799 47.2998 46.0099 46.1998 46.8999 45.1398C47.9899 43.8298 49.1299 43.5898 50.3499 43.5898C51.1999 43.5898 52.1999 43.7598 53.1199 44.5698C53.9099 45.2698 54.6099 46.4198 54.6099 48.0798C54.6099 48.9698 54.4299 49.8698 53.8699 50.6498C53.1699 51.6498 52.0999 52.3498 50.1999 52.3498C49.5499 52.3498 48.4599 52.1698 47.5199 51.5398M53.0299 48.1198C53.0299 45.6998 51.3899 44.2398 50.2999 44.2398C50.1299 44.2398 49.3599 44.0598 48.4899 44.9198C47.7699 45.6198 47.4599 46.7998 47.4599 47.7498C47.4599 50.6898 49.4399 51.7198 50.3199 51.7198C52.8499 51.7198 53.0299 49.1198 53.0299 48.1198Z" fill="#231F20"></path><path d="M63.7197 50.2198H63.7897C63.9597 49.6698 65.5997 45.2298 65.5997 44.7898C65.5997 44.5898 65.4297 44.4198 65.1897 44.4198H64.9097C64.8397 44.4198 64.8197 44.3598 64.8197 44.2898V43.8498C64.8197 43.7898 64.8397 43.7598 64.9297 43.7598C65.0597 43.7598 65.9097 43.8198 66.2397 43.8198C66.6097 43.8198 67.2697 43.7598 67.3797 43.7598C67.4397 43.7598 67.4497 43.7998 67.4497 43.9098V44.3198C67.4497 44.3898 67.4297 44.4298 67.3597 44.4298H67.1397C66.9397 44.4298 66.7697 44.4998 66.6997 44.5998C66.5697 44.7498 63.9297 51.3998 63.6497 51.9998C63.5797 52.1698 63.4697 52.3498 63.2797 52.3498C63.1097 52.3498 62.9997 52.1798 62.9497 52.0398L60.8097 45.9098H60.7697C60.5697 46.3498 58.5197 51.6198 58.3097 52.0798C58.2397 52.2498 58.1397 52.3598 57.9997 52.3598C57.8697 52.3598 57.7597 52.2698 57.6897 52.0798L54.9597 44.8398C54.8297 44.4698 54.5197 44.4298 54.3497 44.4298H54.0397C53.9897 44.4298 53.9697 44.3898 53.9697 44.3398V43.8598C53.9697 43.7898 53.9897 43.7698 54.0597 43.7698C54.1497 43.7698 55.0897 43.8298 55.4997 43.8298C55.7797 43.8298 56.8997 43.7698 57.0097 43.7698C57.0997 43.7698 57.1197 43.8098 57.1197 43.8998V44.3198C57.1197 44.3698 57.0997 44.4298 57.0097 44.4298H56.8097C56.6597 44.4298 56.5297 44.5798 56.6097 44.7998L58.3597 50.2298H58.4197C58.5297 49.8398 60.2697 45.4798 60.2997 45.1498C60.3197 44.9698 60.2597 44.7998 60.1497 44.6298C60.0197 44.4798 59.8497 44.4298 59.6497 44.4298H59.3897C59.3297 44.4298 59.3197 44.3898 59.3197 44.3198V43.8598C59.3197 43.7998 59.3597 43.7698 59.4097 43.7698C59.4997 43.7698 60.5397 43.8298 61.0297 43.8298C61.3997 43.8298 62.5297 43.7698 62.6497 43.7698C62.7097 43.7698 62.7397 43.8098 62.7397 43.9198V44.3298C62.7397 44.3998 62.7197 44.4398 62.6497 44.4398H62.2797C61.9797 44.4398 61.9497 44.6598 61.9997 44.8098L63.6997 50.2398L63.7197 50.2198Z" fill="#231F20"></path><path d="M49.1201 77.7401C49.1201 77.7401 48.7901 77.7601 48.1601 77.7501C47.5401 77.7501 46.6201 77.7101 45.4601 77.6101C44.3001 77.5101 42.8901 77.3401 41.3001 77.0401C39.7101 76.7401 37.9201 76.3201 36.0101 75.7001C34.1101 75.0801 32.0801 74.2801 30.0401 73.2401C27.9901 72.2001 25.9401 70.8901 23.9701 69.3301C22.0201 67.7601 20.1601 65.9101 18.5301 63.8401C16.9001 61.7701 15.4701 59.4901 14.3101 57.0901C14.0301 56.4801 13.7601 55.8701 13.4901 55.2601C13.4201 55.1001 13.3501 54.9601 13.2901 54.8001C13.2301 54.6401 13.1801 54.4801 13.1201 54.3201C13.0101 54.0001 12.9201 53.6801 12.8201 53.3601C12.4501 52.0801 12.1601 50.7901 11.9301 49.4901C11.7101 48.2001 11.5501 46.9001 11.4601 45.6201C11.3601 44.3401 11.3501 43.0601 11.3901 41.8201C11.4801 39.3201 11.8001 36.9101 12.3801 34.7001C12.9501 32.4801 13.7301 30.4501 14.6201 28.6601C15.5001 26.8601 16.5201 25.3401 17.4701 24.0301C17.7201 23.7101 17.9601 23.4001 18.1901 23.1001C18.3101 22.9501 18.4201 22.8001 18.5301 22.6601C18.6501 22.5201 18.7701 22.3901 18.8901 22.2601C19.1201 22.0001 19.3401 21.7501 19.5601 21.5001C19.6701 21.3801 19.7701 21.2601 19.8701 21.1501C19.9801 21.0401 20.0801 20.9401 20.1901 20.8301C20.6001 20.4201 20.9701 20.0501 21.2901 19.7301C21.6301 19.4301 21.9101 19.1701 22.1501 18.9701C22.6101 18.5501 22.8601 18.3301 22.8601 18.3301L22.9001 18.3801C22.9001 18.3801 22.6601 18.6001 22.2001 19.0201C21.9701 19.2301 21.6901 19.4901 21.3601 19.7901C21.0501 20.1101 20.6801 20.4801 20.2801 20.9001C20.1801 21.0001 20.0801 21.1101 19.9701 21.2201C19.8601 21.3301 19.7701 21.4501 19.6601 21.5701C19.4501 21.8101 19.2301 22.0701 19.0101 22.3301C18.9001 22.4601 18.7801 22.6001 18.6601 22.7301C18.5401 22.8701 18.4401 23.0201 18.3201 23.1701C18.0901 23.4701 17.8601 23.7801 17.6101 24.1001C16.6801 25.4201 15.6901 26.9401 14.8301 28.7401C13.9701 30.5301 13.2201 32.5501 12.6901 34.7501C12.1401 36.9501 11.8401 39.3401 11.7801 41.8101C11.7501 43.0501 11.7801 44.3001 11.8901 45.5701C11.9901 46.8401 12.1501 48.1201 12.3901 49.3901C12.6201 50.6701 12.9301 51.9401 13.3001 53.2001C13.4001 53.5101 13.4901 53.8301 13.6001 54.1401C13.6501 54.2901 13.7101 54.4501 13.7601 54.6001C13.8201 54.7401 13.8901 54.9001 13.9601 55.0401C14.2401 55.6401 14.5001 56.2401 14.7901 56.8401C15.9701 59.2001 17.4001 61.4301 19.0201 63.4401C20.6501 65.4501 22.4701 67.2501 24.4001 68.7801C24.8701 69.1801 25.3701 69.5301 25.8601 69.8901C26.3401 70.2601 26.8501 70.5801 27.3401 70.9001C27.8301 71.2401 28.3401 71.5201 28.8401 71.8201C29.3301 72.1301 29.8401 72.3801 30.3401 72.6601C32.3401 73.7201 34.3201 74.5501 36.1901 75.1901C38.0601 75.8301 39.8101 76.3101 41.3901 76.6501C42.1801 76.8201 42.9201 76.9601 43.6001 77.0801C43.9401 77.1401 44.2701 77.1901 44.5901 77.2401C44.9101 77.2901 45.2101 77.3301 45.5001 77.3701C46.6501 77.5201 47.5601 77.5801 48.1801 77.6201C48.8001 77.6601 49.1301 77.6601 49.1301 77.6601V77.7301L49.1201 77.7401Z" fill="#DBA84C"></path><path d="M38.8796 75.0004C38.8796 75.0004 33.0396 75.7904 33.6196 68.4404C33.6196 68.4404 39.9596 70.6804 38.8796 75.0004Z" fill="#DBA84C"></path><path d="M38.1597 77.4303C38.1597 77.4303 33.6297 73.6603 30.2197 80.1903C30.2197 80.1903 36.7797 81.6703 38.1597 77.4303Z" fill="#DBA84C"></path><path d="M31.3998 72.2599C31.3998 72.2599 25.5398 71.6299 27.8598 64.6299C27.8598 64.6299 33.4898 68.3199 31.3998 72.2599Z" fill="#DBA84C"></path><path d="M30.1102 74.4504C30.1102 74.4504 26.6202 69.7004 21.7402 75.2304C21.7402 75.2304 27.7602 78.2304 30.1102 74.4504Z" fill="#DBA84C"></path><path d="M24.9197 68.0295C24.9197 68.0295 19.1997 66.5895 22.4797 59.9795C22.4797 59.9795 27.5397 64.4095 24.9197 68.0295Z" fill="#DBA84C"></path><path d="M23.3502 70.0195C23.3502 70.0195 20.5502 64.8295 14.9502 69.6295C14.9502 69.6295 20.4902 73.4395 23.3502 70.0195Z" fill="#DBA84C"></path><path d="M19.2599 62.37C19.2599 62.37 14.2499 59.27 19.3699 53.96C19.3699 53.96 22.8499 59.72 19.2599 62.37Z" fill="#DBA84C"></path><path d="M17.1595 63.7897C17.1595 63.7897 16.0695 57.9997 9.26953 60.8697C9.26953 60.8697 13.3995 66.1797 17.1595 63.7897Z" fill="#DBA84C"></path><path d="M15.2902 55.6901C15.2902 55.6901 11.2202 51.4301 17.5102 47.5801C17.5102 47.5801 19.4202 54.0301 15.2902 55.6901Z" fill="#DBA84C"></path><path d="M12.9 56.53C12.9 56.53 13.3 50.65 6 51.72C6 51.72 8.65 57.9 12.9 56.53Z" fill="#DBA84C"></path><path d="M13.1798 48.7997C13.1798 48.7997 10.4398 44.0597 16.9598 41.9697C16.9598 41.9697 17.2698 48.2097 13.1798 48.7997Z" fill="#DBA84C"></path><path d="M10.8399 49.0297C10.8399 49.0297 12.4899 43.8097 5.66992 43.1797C5.66992 43.1797 6.70992 49.3397 10.8399 49.0297Z" fill="#DBA84C"></path><path d="M12.69 41.2603C12.69 41.2603 10.91 36.2104 17.56 35.3604C17.56 35.3604 16.74 41.4203 12.69 41.2603Z" fill="#DBA84C"></path><path d="M10.4 41.0698C10.4 41.0698 12.9199 36.3398 6.46995 34.5098C6.46995 34.5098 6.36995 40.6198 10.4 41.0698Z" fill="#DBA84C"></path><path d="M13.8695 34.0398C13.8695 34.0398 13.3995 28.6998 20.0495 29.5398C20.0495 29.5398 17.7495 35.2098 13.8695 34.0398Z" fill="#DBA84C"></path><path d="M11.6899 33.2802C11.6899 33.2802 15.3099 29.3302 9.51989 25.9502C9.51989 25.9502 7.89989 31.8502 11.6899 33.2802Z" fill="#DBA84C"></path><path d="M16.4102 27.58C16.4102 27.58 17.1002 22.58 23.0302 24.75C23.0302 24.75 19.7302 29.47 16.4102 27.58Z" fill="#DBA84C"></path><path d="M14.5695 26.4195C14.5695 26.4195 18.7195 23.5495 14.1195 19.2295C14.1195 19.2295 11.3895 24.2995 14.5695 26.4195Z" fill="#DBA84C"></path><path d="M20.5898 22.0899C20.5898 22.0899 22.2298 17.3199 27.6398 20.5899C27.6398 20.5899 23.4898 24.5799 20.5898 22.0899Z" fill="#DBA84C"></path><path d="M19.0101 20.6C19.0101 20.6 23.6401 18.59 19.9601 13.46C19.9601 13.46 16.3001 17.91 19.0101 20.6Z" fill="#DBA84C"></path><path d="M23.7398 17.87C23.7398 17.87 27.3198 19.92 30.9498 13.46C23.5398 13.75 23.7398 17.87 23.7398 17.87Z" fill="#DBA84C"></path><path d="M40.8799 77.6703C40.8799 77.6703 41.2099 77.6703 41.8299 77.6303C42.4499 77.5903 43.3599 77.5303 44.5099 77.3803C44.7999 77.3403 45.0999 77.3004 45.4199 77.2504C45.7399 77.2004 46.0699 77.1503 46.4099 77.0903C47.0999 76.9803 47.8399 76.8404 48.6199 76.6604C50.1899 76.3204 51.9499 75.8403 53.8199 75.2003C55.6899 74.5603 57.6699 73.7303 59.6699 72.6703C60.1599 72.4003 60.6799 72.1404 61.1699 71.8304C61.6699 71.5304 62.1799 71.2504 62.6699 70.9104C63.1599 70.5804 63.6699 70.2604 64.1499 69.9004C64.6399 69.5404 65.1399 69.1904 65.6099 68.7904C67.5399 67.2604 69.3599 65.4604 70.9899 63.4504C72.6199 61.4404 74.0499 59.2103 75.2199 56.8503C75.4999 56.2603 75.7699 55.6504 76.0499 55.0604C76.1199 54.9104 76.1899 54.7603 76.2499 54.6203C76.3099 54.4703 76.3599 54.3204 76.4099 54.1604C76.5199 53.8504 76.6099 53.5404 76.7099 53.2304C77.0799 51.9704 77.3899 50.7003 77.6199 49.4203C77.8499 48.1403 78.0199 46.8603 78.1199 45.6003C78.2299 44.3303 78.2499 43.0704 78.2299 41.8404C78.1699 39.3704 77.8599 36.9803 77.3199 34.7803C76.7799 32.5803 76.0299 30.5504 75.1799 28.7704C74.3299 26.9804 73.3299 25.4504 72.3999 24.1304C72.1599 23.8104 71.9199 23.5004 71.6899 23.2004C71.5699 23.0504 71.4699 22.9004 71.3499 22.7604C71.2299 22.6204 71.1199 22.4904 70.9999 22.3604C70.7699 22.1004 70.5499 21.8404 70.3499 21.6004C70.2399 21.4804 70.1499 21.3604 70.0399 21.2504C69.9299 21.1404 69.8299 21.0304 69.7299 20.9304C69.3299 20.5104 68.9699 20.1404 68.6499 19.8204C68.3199 19.5204 68.0399 19.2604 67.8099 19.0504C67.3499 18.6304 67.1099 18.4104 67.1099 18.4104L67.1499 18.3604C67.1499 18.3604 67.3999 18.5804 67.8599 18.9904C68.0899 19.2004 68.3799 19.4504 68.7199 19.7504C69.0399 20.0704 69.4099 20.4404 69.8199 20.8504C69.9199 20.9504 70.0299 21.0604 70.1399 21.1704C70.2499 21.2804 70.3499 21.4004 70.4599 21.5204C70.6699 21.7604 70.8899 22.0104 71.1299 22.2804C71.2499 22.4104 71.3599 22.5404 71.4799 22.6804C71.5999 22.8204 71.7099 22.9704 71.8299 23.1204C72.0599 23.4204 72.2999 23.7304 72.5499 24.0504C73.4999 25.3604 74.5199 26.8904 75.3999 28.6804C76.2799 30.4704 77.0699 32.5004 77.6399 34.7204C78.2199 36.9404 78.5399 39.3504 78.6299 41.8404C78.6699 43.0904 78.6499 44.3604 78.5599 45.6404C78.4699 46.9204 78.3199 48.2203 78.0899 49.5103C77.8699 50.8003 77.5699 52.1004 77.1999 53.3804C77.1099 53.7004 77.0099 54.0204 76.8999 54.3404C76.8499 54.5004 76.7899 54.6604 76.7299 54.8204C76.6599 54.9904 76.5899 55.1303 76.5299 55.2803C76.2599 55.8903 75.9899 56.5004 75.7099 57.1104C74.5499 59.5104 73.1199 61.8004 71.4899 63.8604C69.8599 65.9304 68.0099 67.7703 66.0599 69.3403C64.0899 70.9003 62.0399 72.2104 59.9899 73.2504C57.9399 74.2904 55.9199 75.1004 54.0199 75.7104C52.1199 76.3304 50.3299 76.7404 48.7299 77.0504C47.1399 77.3504 45.7299 77.5304 44.5699 77.6204C43.4099 77.7204 42.4999 77.7504 41.8699 77.7604C41.2399 77.7704 40.9099 77.7504 40.9099 77.7504V77.6804L40.8799 77.6703Z" fill="#DBA84C"></path><path d="M51.1199 75.0004C51.1199 75.0004 56.9599 75.7904 56.3799 68.4404C56.3799 68.4404 50.0399 70.6804 51.1199 75.0004Z" fill="#DBA84C"></path><path d="M51.8398 77.4303C51.8398 77.4303 56.3698 73.6603 59.7798 80.1903C59.7798 80.1903 53.2198 81.6703 51.8398 77.4303Z" fill="#DBA84C"></path><path d="M58.5995 72.2599C58.5995 72.2599 64.4595 71.6299 62.1395 64.6299C62.1395 64.6299 56.5195 68.3199 58.5995 72.2599Z" fill="#DBA84C"></path><path d="M59.8896 74.4504C59.8896 74.4504 63.3797 69.7004 68.2597 75.2304C68.2597 75.2304 62.2396 78.2304 59.8896 74.4504Z" fill="#DBA84C"></path><path d="M65.08 68.0295C65.08 68.0295 70.8 66.5895 67.52 59.9795C67.52 59.9795 62.46 64.4095 65.08 68.0295Z" fill="#DBA84C"></path><path d="M66.6504 70.0195C66.6504 70.0195 69.4504 64.8295 75.0504 69.6295C75.0504 69.6295 69.5104 73.4395 66.6504 70.0195Z" fill="#DBA84C"></path><path d="M70.7398 62.37C70.7398 62.37 75.7498 59.27 70.6298 53.96C70.6298 53.96 67.1498 59.72 70.7398 62.37Z" fill="#DBA84C"></path><path d="M72.8398 63.7897C72.8398 63.7897 73.9299 57.9997 80.7299 60.8697C80.7299 60.8697 76.5998 66.1797 72.8398 63.7897Z" fill="#DBA84C"></path><path d="M74.7098 55.6901C74.7098 55.6901 78.7798 51.4301 72.4898 47.5801C72.4898 47.5801 70.5798 54.0301 74.7098 55.6901Z" fill="#DBA84C"></path><path d="M77.0996 56.53C77.0996 56.53 76.6996 50.65 83.9996 51.72C83.9996 51.72 81.3396 57.9 77.0996 56.53Z" fill="#DBA84C"></path><path d="M76.8196 48.7997C76.8196 48.7997 79.5596 44.0597 73.0396 41.9697C73.0396 41.9697 72.7295 48.2097 76.8196 48.7997Z" fill="#DBA84C"></path><path d="M79.1598 49.0297C79.1598 49.0297 77.5098 43.8097 84.3298 43.1797C84.3298 43.1797 83.2898 49.3397 79.1598 49.0297Z" fill="#DBA84C"></path><path d="M77.3094 41.2603C77.3094 41.2603 79.0895 36.2104 72.4395 35.3604C72.4395 35.3604 73.2594 41.4203 77.3094 41.2603Z" fill="#DBA84C"></path><path d="M79.6001 41.0698C79.6001 41.0698 77.0801 36.3398 83.5301 34.5098C83.5301 34.5098 83.6301 40.6198 79.6001 41.0698Z" fill="#DBA84C"></path><path d="M76.1302 34.0398C76.1302 34.0398 76.6002 28.6998 69.9502 29.5398C69.9502 29.5398 72.2502 35.2098 76.1302 34.0398Z" fill="#DBA84C"></path><path d="M78.31 33.2802C78.31 33.2802 74.69 29.3302 80.48 25.9502C80.48 25.9502 82.1 31.8502 78.31 33.2802Z" fill="#DBA84C"></path><path d="M73.5897 27.58C73.5897 27.58 72.8997 22.58 66.9697 24.75C66.9697 24.75 70.2697 29.47 73.5897 27.58Z" fill="#DBA84C"></path><path d="M75.4299 26.4195C75.4299 26.4195 71.2799 23.5495 75.8799 19.2295C75.8799 19.2295 78.6099 24.2995 75.4299 26.4195Z" fill="#DBA84C"></path><path d="M69.4104 22.0899C69.4104 22.0899 67.7704 17.3199 62.3604 20.5899C62.3604 20.5899 66.5104 24.5799 69.4104 22.0899Z" fill="#DBA84C"></path><path d="M70.9902 20.6C70.9902 20.6 66.3602 18.59 70.0402 13.46C70.0402 13.46 73.7002 17.91 70.9902 20.6Z" fill="#DBA84C"></path><path d="M66.2598 17.87C66.2598 17.87 62.6798 19.92 59.0498 13.46C66.4498 13.75 66.2598 17.87 66.2598 17.87Z" fill="#DBA84C"></path><path d="M61.0402 55.2803H29.4502V55.5203H61.0402V55.2803Z" fill="#DBA84C"></path><path d="M45.4804 66.35C45.4804 66.66 45.2303 66.91 44.9203 66.91C44.6103 66.91 44.3604 66.66 44.3604 66.35C44.3604 66.04 44.6103 65.79 44.9203 65.79C45.2303 65.79 45.4804 66.04 45.4804 66.35Z" fill="#DBA84C"></path><path d="M42.7596 66.35C42.7596 66.66 42.5096 66.91 42.1996 66.91C41.8896 66.91 41.6396 66.66 41.6396 66.35C41.6396 66.04 41.8896 65.79 42.1996 65.79C42.5096 65.79 42.7596 66.04 42.7596 66.35Z" fill="#DBA84C"></path><path d="M48.1903 66.35C48.1903 66.66 47.9403 66.91 47.6303 66.91C47.3203 66.91 47.0703 66.66 47.0703 66.35C47.0703 66.04 47.3203 65.79 47.6303 65.79C47.9403 65.79 48.1903 66.04 48.1903 66.35Z" fill="#DBA84C"></path></g><mask id="mask1_2618_681" style="mask-type:luminance" maskUnits="userSpaceOnUse" x="5" y="13" width="80" height="69"><path d="M12.9099 13.4602C10.0899 16.3302 7.64992 19.5802 5.66992 23.1202V66.8902C8.93992 72.7502 13.4799 77.8002 18.9099 81.6802H71.0799C76.5199 77.8102 81.0599 72.7502 84.3199 66.8902V23.1102C82.3499 19.5702 79.9099 16.3202 77.0799 13.4502H12.9099V13.4602Z" fill="white"></path></mask><g mask="url(#mask1_2618_681)"><path d="M56.5104 39.6596C56.3904 39.6596 56.2604 39.6596 56.1604 39.6696C56.0504 39.6696 55.9704 39.6796 55.9404 39.6796C55.9004 39.6796 55.8804 39.6796 55.8604 39.6396C55.8404 39.5896 55.8604 39.5096 55.9004 39.4696C56.1604 39.2396 56.7604 38.6796 57.2804 38.0196C57.7204 37.4696 58.0004 36.9096 57.9804 36.2996C57.9604 35.7696 57.6304 35.4196 57.1604 35.4296C56.7504 35.4496 56.4904 35.7296 56.3304 35.9796C56.2904 36.0396 56.2704 36.0396 56.2504 36.0196L56.1304 35.9696C56.1304 35.9696 56.1004 35.9296 56.1304 35.8696C56.2404 35.5896 56.6304 34.8096 57.6604 34.8096C58.4304 34.8096 59.0104 35.3996 59.0104 36.0996C59.0104 36.6996 58.7304 37.2796 57.9404 38.0196C57.5304 38.3996 57.2104 38.6596 56.9904 38.8696V38.8996H58.2204C58.6804 38.8996 58.8704 38.6196 59.0204 38.3596C59.0604 38.2996 59.0804 38.2796 59.1504 38.3196C59.2304 38.3596 59.2604 38.3796 59.2304 38.4296L58.7304 39.7396C58.7104 39.7996 58.6904 39.8196 58.6204 39.8196C58.5604 39.8196 58.5604 39.8096 58.5304 39.7496C58.4904 39.6596 58.3504 39.6496 58.0704 39.6496H56.5304L56.5104 39.6596Z" fill="#818285"></path><path d="M62.5604 37.2503C62.5604 38.8803 62.0404 39.7703 61.0104 39.7703C59.7604 39.7703 59.4004 38.3903 59.4004 37.4903C59.4004 35.9103 59.9504 34.8203 61.0004 34.8203C62.3204 34.8203 62.5504 36.1803 62.5504 37.2503H62.5604ZM60.6004 35.5803C60.4904 36.1003 60.4004 36.8303 60.4004 37.4203C60.4004 38.0903 60.4304 38.6303 60.5104 38.9303C60.6204 39.3303 60.7604 39.4803 61.0104 39.4803C61.2504 39.4803 61.4004 39.3403 61.4604 39.0203C61.5204 38.6703 61.5504 38.1303 61.5504 37.1003C61.5504 35.9103 61.4104 35.1103 61.0204 35.1103C60.7704 35.1103 60.6404 35.3103 60.5804 35.5803H60.6004Z" fill="#818285"></path><path d="M63.2399 39.6596C63.1199 39.6596 62.9899 39.6596 62.8899 39.6696C62.7799 39.6696 62.6999 39.6796 62.6699 39.6796C62.6299 39.6796 62.6099 39.6796 62.5899 39.6396C62.5699 39.5896 62.5899 39.5096 62.6299 39.4696C62.8899 39.2396 63.4899 38.6796 64.0099 38.0196C64.4499 37.4696 64.7299 36.9096 64.7099 36.2996C64.6899 35.7696 64.3599 35.4196 63.8899 35.4296C63.4799 35.4496 63.2199 35.7296 63.0599 35.9796C63.0199 36.0396 62.9999 36.0396 62.9799 36.0196L62.8599 35.9696C62.8599 35.9696 62.8299 35.9296 62.8599 35.8696C62.9699 35.5896 63.3599 34.8096 64.3899 34.8096C65.1599 34.8096 65.7399 35.3996 65.7399 36.0996C65.7399 36.6996 65.4599 37.2796 64.6699 38.0196C64.2599 38.3996 63.9399 38.6596 63.7199 38.8696V38.8996H64.9499C65.4099 38.8996 65.5899 38.6196 65.7499 38.3596C65.7899 38.2996 65.8099 38.2796 65.8799 38.3196C65.9599 38.3596 65.9899 38.3796 65.9599 38.4296L65.4599 39.7396C65.4399 39.7996 65.4199 39.8196 65.3499 39.8196C65.2899 39.8196 65.2899 39.8096 65.2599 39.7496C65.2199 39.6596 65.0799 39.6496 64.7999 39.6496H63.2599L63.2399 39.6596Z" fill="#818285"></path><path d="M66.5604 36.5398C66.7004 36.5398 67.2604 36.5898 67.6104 36.7198C68.1204 36.9098 68.5404 37.3398 68.5404 38.0598C68.5404 38.9998 67.6704 39.7798 66.5604 39.7798C66.0804 39.7798 65.6904 39.5898 65.6904 39.3798C65.6904 39.2198 65.7804 39.1298 65.8804 39.1398C66.0404 39.1498 66.1404 39.2198 66.2904 39.3098C66.3904 39.3698 66.5504 39.4198 66.7604 39.4198C67.1604 39.4198 67.7104 39.1898 67.7104 38.4498C67.7104 37.9798 67.4504 37.6898 67.2004 37.5598C66.9304 37.4198 66.5304 37.3598 66.2604 37.3598C66.1804 37.3598 66.1404 37.3198 66.1504 37.2498L66.4104 35.0398C66.4104 34.9598 66.4304 34.9298 66.5204 34.9298H68.0904C68.3404 34.9298 68.4004 34.8098 68.5204 34.5798C68.5504 34.5298 68.5704 34.5198 68.6604 34.5598C68.7204 34.5698 68.7404 34.5998 68.7204 34.6698L68.4504 35.6198C68.4104 35.7398 68.3804 35.7698 68.1604 35.7698H66.6604L66.5404 36.5498L66.5604 36.5398Z" fill="#818285"></path><path d="M35.6502 61.7298H34.2602V62.6198H35.8102V63.3198H33.4102V59.5498H35.7402V60.2498H34.2602V61.0298H35.6502V61.7298Z" fill="#808184"></path><path d="M38.3805 63.3198L38.0405 62.6398C37.9005 62.3798 37.8105 62.1798 37.7005 61.9598H37.6905C37.6105 62.1798 37.5205 62.3698 37.3905 62.6398L36.4505 64.6498H35.4805L37.2105 61.4098L36.1605 59.5498H37.1405L37.4705 60.2398C37.5805 60.4698 37.6705 60.6498 37.7605 60.8698H37.7705C37.8605 60.6298 37.9305 60.4598 38.0305 60.2398L38.3505 59.5498H39.3205L38.2605 61.3898L39.3805 63.3198H38.4005H38.3805Z" fill="#808184"></path><path d="M42.0701 61.7298H40.6801V62.6198H42.2301V63.3198H39.8301V59.5498H42.1501V60.2498H40.6801V61.0298H42.0701V61.7298Z" fill="#808184"></path><path d="M45.5806 63.2195C45.4306 63.2895 45.0706 63.3795 44.6206 63.3795C43.3206 63.3795 42.6406 62.5595 42.6406 61.4795C42.6406 60.1895 43.5606 59.4795 44.7006 59.4795C45.1406 59.4795 45.4806 59.5695 45.6306 59.6495L45.4506 60.3195C45.2806 60.2495 45.0406 60.1795 44.7306 60.1795C44.0606 60.1795 43.5306 60.5895 43.5306 61.4295C43.5306 62.1895 43.9806 62.6595 44.7306 62.6595C44.9906 62.6595 45.2706 62.6095 45.4506 62.5395L45.5706 63.2095L45.5806 63.2195Z" fill="#808184"></path><path d="M46.9906 59.5498V61.7098C46.9906 62.3598 47.2406 62.6898 47.6706 62.6898C48.1006 62.6898 48.3606 62.3798 48.3606 61.7098V59.5498H49.2106V61.6598C49.2106 62.8198 48.6206 63.3798 47.6406 63.3798C46.6606 63.3798 46.1406 62.8498 46.1406 61.6498V59.5498H46.9906Z" fill="#808184"></path><path d="M50.6899 60.2698H49.6699V59.5498H52.5699V60.2698H51.5399V63.3198H50.6899V60.2698Z" fill="#808184"></path><path d="M53.8803 59.5498H53.0303V63.3198H53.8803V59.5498Z" fill="#808184"></path><path d="M55.5098 63.3198L54.2998 59.5498H55.2298L55.6898 61.1398C55.8198 61.5898 55.9398 62.0198 56.0298 62.4898H56.0498C56.1398 62.0398 56.2598 61.5898 56.3898 61.1598L56.8698 59.5498H57.7798L56.5098 63.3198H55.5098Z" fill="#808184"></path><path d="M60.4207 61.7298H59.0307V62.6198H60.5807V63.3198H58.1807V59.5498H60.5007V60.2498H59.0307V61.0298H60.4207V61.7298Z" fill="#808184"></path><path d="M31.1307 60.1396C30.6707 60.1396 30.4307 60.3496 30.4307 60.6896C30.4307 60.7796 30.4307 60.8396 30.4507 60.8696H31.8907C31.8907 60.8696 31.8907 60.7796 31.8907 60.7296C31.8907 60.3696 31.6407 60.1396 31.1207 60.1396" fill="#808184"></path><path d="M29.4502 63.3194H32.9202V57.6094H29.4502V63.3194ZM30.1202 58.1194L30.5202 58.1994C30.4802 58.2794 30.4402 58.3894 30.4402 58.5394C30.4402 58.8594 30.6802 59.0994 31.1702 59.0994C31.6102 59.0994 31.8902 58.8894 31.8902 58.5294C31.8902 58.4094 31.8602 58.2794 31.8202 58.1994L32.2102 58.1394C32.2502 58.2094 32.3002 58.3794 32.3002 58.5894C32.3002 59.1994 31.8302 59.5094 31.2002 59.5194C30.4502 59.5194 30.0302 59.0894 30.0302 58.5594C30.0302 58.3494 30.0802 58.1994 30.1302 58.1294M32.2802 60.8194C32.2802 61.0294 32.2702 61.1694 32.2502 61.2694H30.0902C30.0602 61.1294 30.0402 60.9394 30.0402 60.7394C30.0402 60.3994 30.1102 60.1894 30.2702 60.0194C30.4402 59.8394 30.7102 59.7194 31.1002 59.7194C31.5202 59.7194 31.8102 59.8394 31.9902 60.0094C32.1802 60.1894 32.2802 60.4794 32.2802 60.8194ZM32.1702 62.7694L31.7602 62.6894C31.8302 62.5794 31.9002 62.4194 31.9002 62.2494C31.9002 62.0694 31.8102 61.9694 31.6602 61.9694C31.5202 61.9694 31.4502 62.0494 31.3502 62.2694C31.2202 62.5594 31.0202 62.7494 30.7002 62.7494C30.3202 62.7494 30.0402 62.4994 30.0402 62.0894C30.0402 61.8894 30.0902 61.7494 30.1502 61.6394L30.5502 61.7294C30.5102 61.7994 30.4502 61.9294 30.4502 62.0994C30.4502 62.2694 30.5502 62.3594 30.6602 62.3594C30.8002 62.3594 30.8602 62.2594 30.9702 62.0294C31.1102 61.7194 31.3102 61.5694 31.6202 61.5694C31.9902 61.5694 32.3002 61.7994 32.3002 62.2794C32.3002 62.4794 32.2402 62.6794 32.1702 62.7794" fill="#808184"></path><path d="M33.5702 58.8403C33.6602 58.8903 33.8002 58.9403 33.9402 58.9403C34.1202 58.9403 34.2202 58.8503 34.2202 58.7303C34.2202 58.6103 34.1402 58.5403 33.9402 58.4703C33.6902 58.3803 33.5202 58.2403 33.5202 58.0203C33.5202 57.7703 33.7302 57.5703 34.0702 57.5703C34.2402 57.5703 34.3602 57.6103 34.4402 57.6503L34.3702 57.8803C34.3202 57.8503 34.2102 57.8103 34.0602 57.8103C33.8802 57.8103 33.8002 57.9103 33.8002 58.0003C33.8002 58.1203 33.8902 58.1703 34.1002 58.2503C34.3702 58.3503 34.5002 58.4903 34.5002 58.7103C34.5002 58.9603 34.3102 59.1703 33.9102 59.1703C33.7502 59.1703 33.5802 59.1203 33.4902 59.0703L33.5502 58.8403H33.5702Z" fill="#808184"></path><path d="M35.1101 57.5998V58.4998C35.1101 58.7998 35.2401 58.9398 35.4301 58.9398C35.6401 58.9398 35.7601 58.7998 35.7601 58.4998V57.5998H36.0401V58.4798C36.0401 58.9598 35.7901 59.1698 35.4201 59.1698C35.0501 59.1698 34.8301 58.9698 34.8301 58.4798V57.5898H35.1101V57.5998Z" fill="#808184"></path><path d="M36.4199 57.6198C36.5199 57.5998 36.6599 57.5898 36.8499 57.5898C37.0599 57.5898 37.2099 57.6298 37.3099 57.7198C37.3999 57.7998 37.4599 57.9198 37.4599 58.0598C37.4599 58.1998 37.4099 58.3298 37.3299 58.4098C37.2199 58.5198 37.0399 58.5798 36.8399 58.5798C36.7899 58.5798 36.7399 58.5798 36.6999 58.5798V59.1598H36.4199V57.6298V57.6198ZM36.6999 58.3398C36.6999 58.3398 36.7799 58.3498 36.8399 58.3498C37.0499 58.3498 37.1799 58.2498 37.1799 58.0598C37.1799 57.8898 37.0599 57.7998 36.8699 57.7998C36.7899 57.7998 36.7399 57.7998 36.7099 57.8098V58.3298L36.6999 58.3398Z" fill="#808184"></path><path d="M37.7705 57.6198C37.8705 57.5998 38.0105 57.5898 38.2005 57.5898C38.4105 57.5898 38.5605 57.6298 38.6605 57.7198C38.7505 57.7998 38.8105 57.9198 38.8105 58.0598C38.8105 58.1998 38.7605 58.3298 38.6805 58.4098C38.5705 58.5198 38.3905 58.5798 38.1905 58.5798C38.1405 58.5798 38.0905 58.5798 38.0505 58.5798V59.1598H37.7705V57.6298V57.6198ZM38.0505 58.3398C38.0505 58.3398 38.1305 58.3498 38.1905 58.3498C38.4005 58.3498 38.5305 58.2498 38.5305 58.0598C38.5305 57.8898 38.4105 57.7998 38.2205 57.7998C38.1405 57.7998 38.0905 57.7998 38.0605 57.8098V58.3298L38.0505 58.3398Z" fill="#808184"></path><path d="M39.1104 57.5996H39.4004V58.9096H40.0303V59.1396H39.1104V57.5996Z" fill="#808184"></path><path d="M40.4597 59.1396V58.4996L39.9697 57.5996H40.2897L40.4797 57.9996C40.5297 58.1196 40.5697 58.1996 40.6097 58.3096C40.6497 58.2096 40.6897 58.1096 40.7497 57.9996L40.9397 57.5996H41.2597L40.7497 58.4896V59.1396H40.4697H40.4597Z" fill="#808184"></path><path d="M42.8399 59.1398C42.8399 59.1398 42.7699 59.0598 42.7299 59.0098C42.6199 59.1098 42.4999 59.1598 42.3399 59.1598C42.0299 59.1598 41.8799 58.9498 41.8799 58.7198C41.8799 58.5098 41.9899 58.3698 42.1499 58.2698C42.0799 58.1798 42.0399 58.0598 42.0399 57.9498C42.0399 57.7598 42.1699 57.5498 42.4299 57.5498C42.6299 57.5498 42.7699 57.6798 42.7699 57.8998C42.7699 58.0598 42.6899 58.1898 42.4799 58.2998C42.5799 58.4298 42.6899 58.5698 42.7599 58.6598C42.8199 58.5598 42.8599 58.4098 42.8899 58.2498H43.1199C43.0799 58.4898 43.0199 58.6798 42.8999 58.8298C42.9799 58.9198 43.0499 59.0198 43.1399 59.1198H42.8399V59.1398ZM42.6099 58.8598C42.5299 58.7598 42.3899 58.5998 42.2599 58.4298C42.1899 58.4798 42.1199 58.5598 42.1199 58.6898C42.1199 58.8398 42.2199 58.9598 42.3799 58.9598C42.4799 58.9598 42.5599 58.9198 42.6099 58.8598ZM42.2599 57.9398C42.2599 58.0298 42.2999 58.1098 42.3599 58.1898C42.4799 58.1098 42.5499 58.0398 42.5499 57.9298C42.5499 57.8498 42.5099 57.7598 42.4099 57.7598C42.3099 57.7598 42.2599 57.8498 42.2599 57.9498" fill="#808184"></path><path d="M43.8506 57.6198C43.9706 57.5998 44.1306 57.5898 44.3006 57.5898C44.5906 57.5898 44.7906 57.6498 44.9306 57.7698C45.0806 57.8898 45.1706 58.0798 45.1706 58.3398C45.1706 58.5998 45.0806 58.8198 44.9306 58.9598C44.7806 59.0998 44.5306 59.1698 44.2306 59.1698C44.0606 59.1698 43.9406 59.1698 43.8506 59.1498V57.6298V57.6198ZM44.1306 58.9298C44.1306 58.9298 44.2306 58.9298 44.2906 58.9298C44.6606 58.9298 44.8806 58.7298 44.8806 58.3398C44.8806 57.9998 44.6806 57.7998 44.3306 57.7998C44.2406 57.7998 44.1806 57.7998 44.1406 57.8198V58.9298H44.1306Z" fill="#808184"></path><path d="M46.3405 58.4596H45.7605V58.9096H46.4105V59.1396H45.4805V57.5996H46.3805V57.8296H45.7605V58.2296H46.3405V58.4596Z" fill="#808184"></path><path d="M48.0304 58.5098C48.0304 58.3098 48.0104 58.0698 48.0104 57.8598C47.9604 58.0498 47.8904 58.2598 47.8304 58.4498L47.6004 59.1198H47.3804L47.1704 58.4598C47.1104 58.2598 47.0504 58.0498 47.0104 57.8598C47.0104 58.0598 46.9904 58.3098 46.9804 58.5198L46.9504 59.1398H46.6904L46.7904 57.5898H47.1604L47.3604 58.2098C47.4104 58.3898 47.4604 58.5798 47.5004 58.7498C47.5404 58.5798 47.5904 58.3898 47.6504 58.2098L47.8604 57.5898H48.2304L48.3204 59.1398H48.0404L48.0104 58.5098H48.0304Z" fill="#808184"></path><path d="M48.9805 58.6998L48.8505 59.1398H48.5605L49.0605 57.5898H49.4205L49.9205 59.1398H49.6205L49.4805 58.6998H48.9905H48.9805ZM49.4205 58.4898L49.3005 58.1098C49.2705 58.0198 49.2505 57.9098 49.2205 57.8198C49.2005 57.9098 49.1705 58.0198 49.1505 58.1098L49.0305 58.4898H49.4305H49.4205Z" fill="#808184"></path><path d="M50.1907 59.1398V57.5898H50.5107L50.9107 58.2498C51.0107 58.4198 51.1007 58.5998 51.1707 58.7698C51.1507 58.5598 51.1407 58.3598 51.1407 58.1298V57.5898H51.4007V59.1398H51.1107L50.7107 58.4598C50.6107 58.2898 50.5107 58.0998 50.4307 57.9298C50.4407 58.1298 50.4407 58.3398 50.4407 58.5898V59.1398H50.1807H50.1907Z" fill="#808184"></path><path d="M51.8105 57.6198C51.9305 57.5998 52.0905 57.5898 52.2605 57.5898C52.5505 57.5898 52.7505 57.6498 52.8905 57.7698C53.0405 57.8898 53.1305 58.0798 53.1305 58.3398C53.1305 58.5998 53.0405 58.8198 52.8905 58.9598C52.7405 59.0998 52.4905 59.1698 52.1905 59.1698C52.0205 59.1698 51.9005 59.1698 51.8105 59.1498V57.6298V57.6198ZM52.0905 58.9298C52.0905 58.9298 52.1905 58.9298 52.2505 58.9298C52.6205 58.9298 52.8405 58.7298 52.8405 58.3398C52.8405 57.9998 52.6405 57.7998 52.2905 57.7998C52.2005 57.7998 52.1405 57.7998 52.1005 57.8198V58.9298H52.0905Z" fill="#808184"></path><path d="M55.0806 59.1003C55.0106 59.1303 54.8706 59.1703 54.6806 59.1703C54.1906 59.1703 53.8906 58.8603 53.8906 58.3903C53.8906 57.8803 54.2406 57.5703 54.7206 57.5703C54.9106 57.5703 55.0406 57.6103 55.1006 57.6403L55.0406 57.8603C54.9706 57.8303 54.8706 57.8003 54.7406 57.8003C54.4306 57.8003 54.2006 58.0003 54.2006 58.3703C54.2006 58.7103 54.4006 58.9303 54.7406 58.9303C54.8506 58.9303 54.9706 58.9103 55.0506 58.8703L55.1006 59.0903L55.0806 59.1003Z" fill="#808184"></path><path d="M55.6706 57.5996V58.2196H56.3206V57.5996H56.6106V59.1396H56.3206V58.4596H55.6706V59.1396H55.3906V57.5996H55.6706Z" fill="#808184"></path><path d="M57.2999 58.6998L57.1699 59.1398H56.8799L57.3799 57.5898H57.7399L58.2399 59.1398H57.9399L57.7999 58.6998H57.3099H57.2999ZM57.7499 58.4898L57.6299 58.1098C57.5999 58.0198 57.5799 57.9098 57.5499 57.8198C57.5299 57.9098 57.4999 58.0198 57.4799 58.1098L57.3599 58.4898H57.7599H57.7499Z" fill="#808184"></path><path d="M58.7898 57.5996H58.5098V59.1496H58.7898V57.5996Z" fill="#808184"></path><path d="M59.1799 59.1398V57.5898H59.4999L59.8999 58.2498C59.9999 58.4198 60.0899 58.5998 60.1599 58.7698C60.1399 58.5598 60.1299 58.3598 60.1299 58.1298V57.5898H60.3899V59.1398H60.0999L59.6999 58.4598C59.5999 58.2898 59.4999 58.0998 59.4199 57.9298C59.4299 58.1298 59.4299 58.3398 59.4299 58.5898V59.1398H59.1699H59.1799Z" fill="#808184"></path><path d="M60.8502 59.5498C60.9502 59.5498 61.0402 59.6198 61.0402 59.7298C61.0402 59.8398 60.9502 59.9098 60.8502 59.9098C60.7502 59.9098 60.6602 59.8398 60.6602 59.7298C60.6602 59.6198 60.7502 59.5498 60.8502 59.5498ZM60.8502 59.8798C60.9302 59.8798 60.9902 59.8198 60.9902 59.7298C60.9902 59.6398 60.9302 59.5898 60.8502 59.5898C60.7702 59.5898 60.7102 59.6498 60.7102 59.7298C60.7102 59.8098 60.7702 59.8798 60.8502 59.8798ZM60.7802 59.6298H60.8602C60.9102 59.6298 60.9402 59.6498 60.9402 59.6898C60.9402 59.7298 60.9202 59.7398 60.8902 59.7498L60.9502 59.8398H60.9102L60.8602 59.7498H60.8302V59.8398H60.7902V59.6298H60.7802ZM60.8202 59.7198H60.8602C60.8602 59.7198 60.9002 59.7198 60.9002 59.6898C60.9002 59.6698 60.8802 59.6598 60.8602 59.6598H60.8302V59.7098L60.8202 59.7198Z" fill="#808184"></path><path d="M49.2704 40.6902C49.1104 40.8802 48.9604 41.0202 48.8204 41.1102C48.6804 41.2002 48.5304 41.2502 48.3704 41.2502C48.2104 41.2502 48.0704 41.2002 47.9704 41.0902C47.8704 40.9802 47.8004 40.8402 47.7704 40.6702C47.7304 40.4302 47.6204 40.2202 47.4404 40.0502C47.2604 39.8802 47.0104 39.8002 46.6904 39.8002C46.4004 39.8002 46.1004 39.8602 45.7904 39.9902C45.4804 40.1202 45.2104 40.2902 44.9504 40.5002C44.7004 40.7102 44.4904 40.9602 44.3304 41.2502C44.2504 41.3902 44.1904 41.5402 44.1504 41.6902C44.0104 41.8502 43.8704 42.0002 43.7404 42.1202C43.4604 42.3802 43.2104 42.5902 42.9704 42.7402C42.7304 42.8902 42.5404 42.9602 42.3904 42.9602C42.3104 42.9602 42.2604 42.9402 42.2104 42.8902C42.1704 42.8402 42.1504 42.7802 42.1504 42.7102C42.1504 42.6202 42.1704 42.5202 42.2204 42.4002C42.2704 42.2802 42.3504 42.1302 42.4604 41.9302C42.5704 41.7302 42.7104 41.4902 42.8904 41.1902C43.0704 40.8902 43.1404 40.7702 43.4104 40.3402H44.5504L44.6304 40.1802H43.5104L44.5804 38.4902L43.6304 38.5302L42.6704 40.1902H41.9904L41.9304 40.3502H42.5904C42.4104 40.6502 42.3704 40.6802 42.2104 40.9202C42.0604 41.1502 41.9204 41.3702 41.8104 41.5602C41.7004 41.7502 41.6104 41.9302 41.5404 42.0902C41.4804 42.2502 41.4404 42.4102 41.4404 42.5602C41.4404 42.7702 41.5104 42.9202 41.6504 43.0002C41.7904 43.0802 41.9504 43.1302 42.1404 43.1302C42.2704 43.1302 42.4104 43.1002 42.5504 43.0502C42.6904 43.0002 42.8304 42.9202 42.9804 42.8302C43.1304 42.7402 43.2704 42.6302 43.4204 42.5102C43.5604 42.3902 43.7004 42.2602 43.8404 42.1302C43.9304 42.0402 44.0204 41.9402 44.1104 41.8402C44.0904 41.9402 44.0804 42.0402 44.0804 42.1402C44.0804 42.4602 44.1804 42.7202 44.3704 42.9002C44.5604 43.0802 44.8204 43.1802 45.1404 43.1802C45.4404 43.1802 45.7404 43.1202 46.0204 43.0102C46.3004 42.9002 46.5604 42.7402 46.7904 42.5402C47.0204 42.3402 47.2104 42.1202 47.3804 41.8502C47.5404 41.5902 47.6604 41.3102 47.7304 41.0202C47.8104 41.1302 47.9004 41.2102 48.0004 41.2702C48.1004 41.3302 48.2204 41.3602 48.3504 41.3602C48.5404 41.3602 48.7204 41.3002 48.8804 41.1802C49.0404 41.0602 49.1804 40.9202 49.3004 40.7702L49.2504 40.7002L49.2704 40.6902ZM46.9604 40.8302C46.9104 41.0102 46.8504 41.2002 46.7604 41.4002C46.6804 41.6002 46.5804 41.8002 46.4604 42.0002C46.3504 42.2002 46.2204 42.3802 46.0904 42.5402C45.9604 42.7002 45.8104 42.8302 45.6704 42.9302C45.5204 43.0302 45.3804 43.0802 45.2304 43.0802C45.1004 43.0802 45.0004 43.0402 44.9304 42.9602C44.8704 42.8802 44.8404 42.7602 44.8404 42.6202C44.8404 42.5002 44.8604 42.3402 44.9104 42.1602C44.9604 41.9802 45.0204 41.7902 45.1104 41.5902C45.1904 41.3902 45.2904 41.1902 45.4104 40.9902C45.5204 40.7902 45.6504 40.6102 45.7804 40.4502C45.9104 40.2902 46.0604 40.1602 46.2004 40.0602C46.3504 39.9602 46.4904 39.9102 46.6404 39.9102C46.7704 39.9102 46.8704 39.9502 46.9304 40.0302C46.9904 40.1102 47.0204 40.2302 47.0204 40.3702C47.0204 40.4902 47.0004 40.6502 46.9504 40.8302" fill="#939598"></path></g></g><defs><clipPath id="clip0_2618_681"><rect width="90" height="90" fill="white"></rect></clipPath></defs></svg>