<svg xmlns="http://www.w3.org/2000/svg" fill="none" viewBox="0 0 93 107"><path fill="#fff" d="m.035 83.877 46 22.666 46-22.666V.543h-92v83.334z"></path><path fill="#fff" d="m.035 83.877 46 22.666 46-22.666V.543h-92v83.334z"></path><path fill="#000" d="M10.73 13.33q-.37 0-.69-.09-.32-.09-.57-.25-.26-.17-.42-.37-.17-.2-.21-.43l.93-.28q.09.24.33.41.23.17.58.18.37.01.6-.16.24-.17.24-.43 0-.23-.19-.39-.18-.16-.51-.24l-.63-.17q-.36-.09-.63-.28-.28-.18-.43-.46-.15-.27-.15-.63 0-.7.45-1.09.46-.38 1.3-.38.47 0 .83.13.35.14.59.39.23.25.36.6l-.93.28q-.08-.24-.31-.4-.22-.17-.57-.17t-.54.16q-.2.16-.2.46 0 .23.15.36.16.13.43.2l.65.16q.63.16.98.56t.35.89q0 .43-.21.75-.21.33-.61.51t-.97.18Zm5.22.02q-.6 0-1.05-.24-.45-.24-.69-.67-.24-.43-.24-1.02V8.35h.96v3.07q0 .32.13.55.12.24.36.36.23.13.55.13.31 0 .55-.13.23-.12.36-.36.13-.23.13-.55V8.35h.96v3.07q0 .59-.25 1.02-.25.43-.7.67-.45.24-1.07.24Zm3.71-.1v-4.9h1.05l1.43 2.11 1.42-2.11h1.04v4.9h-.95v-3.4l-1.51 2.22-1.52-2.21v3.39Zm6.7 0v-4.9h1.05l1.42 2.11 1.43-2.11h1.04v4.9h-.95v-3.4l-1.52 2.22-1.51-2.21v3.39Zm6.7 0v-4.9h3.1v.87l-2.14.01v1.11h1.85v.85h-1.85v1.19h2.17v.87Zm4.83 0v-4.9h1.82q.51 0 .91.2.4.21.63.56.22.35.22.82 0 .46-.23.82-.24.36-.64.56-.41.2-.93.2h-.82v1.74Zm2.69 0-1.13-1.97.73-.52 1.49 2.49Zm-1.73-2.61h.86q.22 0 .39-.09t.27-.25q.11-.16.11-.37 0-.31-.23-.51-.23-.19-.59-.19h-.81Zm6.44 2.61v-.71q0-.2.13-.44.12-.25.35-.49.22-.25.52-.46l.75-.53q.15-.11.29-.24.13-.13.22-.29.09-.16.09-.3 0-.19-.09-.33-.09-.15-.26-.23-.16-.09-.41-.09-.21 0-.37.09-.17.08-.27.22-.11.14-.15.3l-.99-.17q.07-.35.3-.65.24-.3.61-.49.37-.18.85-.18.55 0 .94.2.39.19.6.53.22.34.22.79t-.25.81q-.25.35-.68.66l-.67.48q-.2.14-.35.31-.15.17-.22.37h2.23v.84Zm6.67.08q-.6 0-1.05-.32-.46-.33-.72-.9-.26-.57-.26-1.31 0-.74.26-1.31.26-.57.71-.9.45-.32 1.05-.32.59 0 1.05.32.46.33.72.9.26.57.26 1.31 0 .74-.26 1.31-.26.57-.71.9-.46.32-1.05.32Zm0-.86q.31 0 .56-.22.25-.21.39-.59.14-.37.14-.86t-.14-.87q-.14-.38-.39-.59-.25-.21-.57-.21-.32 0-.56.21-.25.21-.38.59-.14.38-.14.87t.14.86q.13.38.38.59.25.22.57.22Zm3.32.78v-.71q0-.2.13-.44.12-.25.35-.49.22-.25.52-.46l.74-.53q.16-.11.29-.24.14-.13.23-.29.09-.16.09-.3 0-.19-.09-.33-.09-.15-.26-.23-.16-.09-.41-.09-.21 0-.37.09-.17.08-.27.22-.11.14-.15.3l-.99-.17q.07-.35.3-.65.23-.3.61-.49.37-.18.85-.18.55 0 .94.2.39.19.6.53.22.34.22.79t-.25.81q-.25.35-.68.66l-.67.48q-.2.14-.35.31-.15.17-.22.37h2.23v.84Zm6.45.08q-.34 0-.69-.11-.35-.11-.64-.33-.28-.23-.41-.56l.87-.26q.15.23.37.33.21.11.44.11.37 0 .59-.22.23-.22.23-.59 0-.35-.22-.58-.22-.23-.58-.23-.22 0-.4.1-.18.1-.28.23l-.86-.19.29-2.68h2.77v.87h-1.95l-.14 1.17q.19-.1.42-.17.23-.06.5-.06.4 0 .72.2.33.19.53.52.19.33.19.77 0 .5-.23.88-.22.38-.61.59-.39.21-.91.21Z" style="white-space:pre"></path><g fill="#000" style="white-space:pre"><path d="M31.06 46V34.8h3.92q1.15 0 2.03.35.88.35 1.38 1.07.49.72.49 1.83 0 .59-.31 1.11-.31.52-.85.94.76.4 1.17 1.04.41.65.41 1.6 0 1.05-.48 1.78t-1.33 1.1q-.85.38-1.98.38Zm2.51-2.27h1.65q.66 0 1.04-.35.38-.34.38-.88 0-.58-.4-.91-.4-.33-1.1-.33h-1.57Zm0-4.53h1.33q.61 0 .98-.31.36-.31.36-.87 0-.58-.39-.89-.39-.31-1.05-.31h-1.23Zm10.87 6.99q-1.25 0-2.21-.53-.96-.54-1.51-1.48-.54-.95-.54-2.18 0-1.25.55-2.19.55-.95 1.51-1.47.96-.53 2.23-.53 1.13 0 2.05.54.91.55 1.44 1.62.54 1.07.54 2.67h-6.02l.28-.3q0 .54.22.96.22.41.62.63.4.21.9.21.59 0 1-.26.41-.26.57-.66l2.21.75q-.32.75-.91 1.25-.58.49-1.33.73-.76.24-1.6.24Zm-1.62-4.89-.26-.32h3.59l-.23.32q0-.6-.24-.95t-.59-.5q-.35-.15-.7-.15t-.71.15q-.36.15-.61.5t-.25.95Zm9.74 4.89q-.78 0-1.46-.23-.68-.23-1.18-.66-.49-.42-.73-1.03l2.05-.86q.2.41.57.61.37.2.75.2.4 0 .63-.13.22-.14.22-.38 0-.25-.23-.4-.23-.14-.66-.25l-.69-.18q-1.12-.29-1.72-.95-.6-.67-.6-1.55 0-1.23.85-1.9.84-.67 2.35-.67.85 0 1.49.22.65.23 1.09.63.44.41.63.96l-1.98.81q-.11-.32-.46-.49-.34-.16-.76-.16-.35 0-.54.15-.19.15-.19.41 0 .19.23.32.23.14.68.25l.85.21q.75.19 1.26.58.51.4.77.92t.26 1.11q0 .75-.44 1.3t-1.23.86q-.78.3-1.81.3Zm8.1 0q-1.42 0-2.12-.68-.7-.68-.7-1.94V35.5h2.5v7.44q0 .48.18.71.17.22.54.22.14 0 .34-.07.19-.07.35-.18l.86 1.82q-.38.32-.92.54-.53.21-1.03.21ZM56.6 40.1V38h5.56v2.1ZM17.8 62V50.8h7.29v2.37h-4.72v2.05h3.95v2.28h-3.95v2.13h4.8V62Zm12.12.19q-.78 0-1.46-.23-.68-.23-1.18-.66-.49-.42-.73-1.03l2.05-.86q.2.41.57.61.37.2.75.2.4 0 .63-.13.22-.14.22-.38 0-.25-.23-.4-.23-.14-.66-.25l-.69-.18q-1.12-.29-1.72-.95-.6-.67-.6-1.55 0-1.23.85-1.9.84-.67 2.35-.67.85 0 1.49.22.65.23 1.09.63.44.41.63.96l-1.98.81q-.11-.32-.46-.49-.34-.16-.76-.16-.35 0-.54.15-.19.15-.19.41 0 .19.23.32.23.14.68.25l.85.21q.75.19 1.26.58.51.4.77.92t.26 1.11q0 .75-.44 1.3t-1.23.86q-.78.3-1.81.3Zm8.1 0q-1.42 0-2.12-.68-.7-.68-.7-1.94V51.5h2.5v7.44q0 .48.18.71.17.22.54.22.14 0 .34-.07.19-.07.35-.18l.86 1.82q-.38.32-.92.54-.53.21-1.03.21Zm-4.06-6.09V54h5.56v2.1Zm8.57 6.14q-.61 0-1.04-.43-.43-.43-.43-1.04 0-.59.43-1.03.43-.43 1.04-.43.59 0 1.03.43.43.44.43 1.03 0 .61-.43 1.04-.44.43-1.03.43Zm6.96-.24V50.8h4.4q1.22 0 2.16.47.95.47 1.48 1.31.54.84.54 1.93 0 1.09-.55 1.94-.54.85-1.49 1.32-.95.47-2.19.47h-1.77V62Zm6.08 0-2.53-4.45 1.94-1.42L58.52 62Zm-3.5-6.13h1.74q.45 0 .8-.17.35-.18.55-.49.2-.31.2-.7 0-.59-.44-.97-.44-.39-1.16-.39h-1.69Zm13.17 6.32q-1.73 0-3.06-.74-1.33-.75-2.08-2.05-.75-1.3-.75-2.98 0-1.7.75-3 .75-1.31 2.07-2.05 1.32-.75 3.03-.75 1.72 0 3.04.75 1.32.74 2.07 2.05.75 1.3.75 3 0 1.68-.74 2.98-.75 1.3-2.06 2.05-1.31.74-3.02.74Zm0-2.37q.94 0 1.66-.43t1.12-1.21q.4-.77.4-1.76 0-1.01-.42-1.79-.41-.77-1.13-1.21-.72-.44-1.67-.44-.94 0-1.66.44t-1.14 1.21q-.41.78-.41 1.79 0 .99.41 1.76.42.78 1.16 1.21.73.43 1.68.43ZM72.63 62V50.8h2.57V62Z"></path></g><path fill="#FF492C" d="M71.035.543h21v21h-21z"></path><g clip-path="url(#a)"><path fill="#fff" fill-rule="evenodd" d="M86.086 8.585h-1.794c.049-.281.222-.438.574-.616l.331-.168c.591-.303.906-.644.906-1.2a.972.972 0 0 0-.407-.828c-.266-.2-.591-.298-.965-.298a1.5 1.5 0 0 0-.819.233 1.383 1.383 0 0 0-.542.59l.52.519c.201-.406.494-.606.879-.606.325 0 .526.168.526.4 0 .195-.098.357-.472.546l-.211.103c-.461.233-.781.498-.965.8-.185.298-.277.682-.277 1.142v.124h2.716v-.74zm-.245 1.6h-2.966l-1.483 2.57h2.966l1.483 2.57 1.484-2.57-1.484-2.57z" clip-rule="evenodd"></path><path fill="#fff" fill-rule="evenodd" d="M81.644 14.472a3.433 3.433 0 0 1-3.43-3.428 3.433 3.433 0 0 1 3.43-3.427l1.174-2.456a6 6 0 0 0-7.176 5.883 6 6 0 0 0 6.002 5.999 5.978 5.978 0 0 0 3.535-1.15l-1.3-2.252a3.417 3.417 0 0 1-2.235.831z" clip-rule="evenodd"></path><path stroke="#000" stroke-width="1.085" d="M71.524 1.21v19.868"></path></g><path fill="#5746B2" d="M.035 84.063v-6.5l46 23.042 46-23.042v6.5l-46 22.48-46-22.48z"></path><path fill="#FFF" d="M.035 78.109v-6.5l46 23.042 46-23.042v6.5l-46 22.48-46-22.48z"></path><path fill="#FFF" d="M.035 72.174v-6.5l46 23.043 46-23.043v6.5l-46 22.48-46-22.48z"></path><path stroke="#000" stroke-width="1.085" d="m91.492 83.54-45.457 22.398L.578 83.54V1.086h90.914V83.54zm.118-62.462H.66"></path><defs><clipPath id="a"><path fill="#fff" d="M0 0h21v21H0z" transform="translate(71.035 .543)"></path></clipPath></defs></svg>