<svg xmlns="http://www.w3.org/2000/svg" width="150" height="80" viewBox="0 0 150 80" fill="none"><g clip-path="url(#clip0_2615_413)"><path d="M134.127 0H39.6826V50.6931H134.127V0Z" fill="white"></path><path d="M69.8725 38.7694H63.1211V0H75.0653C70.0503 3.78051 67.2351 11.3919 67.2351 22.875C67.2351 29.4573 68.1501 34.7466 69.8748 38.767L69.8725 38.7694Z" fill="#E1C7E0"></path><path d="M78.8613 22.7334C78.8613 10.6003 80.5205 7.33789 83.9816 7.33789C87.4427 7.33789 89.1019 10.7418 89.1019 22.8749C89.1019 35.0081 87.5808 38.2704 84.1197 38.2704C80.6586 38.2704 78.8613 34.9361 78.8613 22.7334Z" fill="#E1C7E0"></path><path d="M93.0639 0H107.236C103.66 2.69385 101.203 7.33793 100.087 13.9442C99.0102 7.33313 96.6116 2.69385 93.0615 0H93.0639Z" fill="#E1C7E0"></path><path d="M111.032 22.7334C111.032 10.6003 112.693 7.33789 116.152 7.33789C119.611 7.33789 121.275 10.7418 121.275 22.8749C121.275 35.0081 119.751 38.2704 116.29 38.2704C112.829 38.2704 111.029 34.9361 111.029 22.7334H111.032Z" fill="#E1C7E0"></path><path d="M150 73.1686H135.711V56.9287H150L142.979 65.1878L150 73.1686Z" fill="#D1D3D4"></path><path d="M4.2123 50.5957V54.4722H0L4.2123 50.5957Z" fill="#56556A"></path><path d="M71.1553 1.61919C67.5023 6.24888 65.6535 13.3733 65.6535 22.875C65.6535 28.4378 66.2994 33.2258 67.5748 37.1478H64.6988V1.61919H71.1553ZM75.0634 0H63.1191V38.7694H69.8705C68.1458 34.749 67.2308 29.4597 67.2308 22.8774C67.2308 11.3943 70.0484 3.78291 75.061 0.0023988L75.0634 0Z" fill="#12395F"></path><path d="M83.9836 8.95708C84.7956 8.95708 85.6474 9.1226 86.3588 11.1136C87.1428 13.3061 87.5242 17.1514 87.5242 22.8749C87.5242 28.5985 87.1732 32.4222 86.422 34.5787C85.7551 36.4953 84.9524 36.6536 84.1193 36.6536C83.2862 36.6536 82.411 36.4881 81.6668 34.4995C80.8407 32.2902 80.4382 28.4425 80.4382 22.7334C80.4382 17.0242 80.8197 13.2054 81.6013 11.0512C82.3033 9.1178 83.1271 8.95708 83.9789 8.95708M83.9836 7.33789C80.5225 7.33789 78.8633 10.6027 78.8633 22.7334C78.8633 34.8641 80.6629 38.2704 84.1216 38.2704C87.5804 38.2704 89.1039 35.0057 89.1039 22.8749C89.1039 10.7442 87.4447 7.33789 83.9836 7.33789Z" fill="#12395F"></path><path d="M103.334 1.61919C102.031 3.27916 100.952 5.26297 100.107 7.56582C99.279 5.26297 98.2189 3.27676 96.9341 1.61919H103.334ZM107.236 0H93.0635C96.6135 2.69385 99.0122 7.33313 100.089 13.9442C101.205 7.33793 103.662 2.69625 107.238 0H107.236Z" fill="#12395F"></path><path d="M116.154 8.95708C116.967 8.95708 117.818 9.1226 118.532 11.116C119.318 13.3085 119.7 17.1538 119.7 22.8773C119.7 28.6009 119.349 32.4246 118.598 34.5811C117.931 36.4977 117.128 36.656 116.295 36.656C115.099 36.656 112.614 36.656 112.614 22.7382C112.614 17.0314 112.995 13.2102 113.777 11.056C114.479 9.1226 115.303 8.96188 116.154 8.96188M116.154 7.33789C112.696 7.33789 111.034 10.6027 111.034 22.7334C111.034 34.8641 112.834 38.2704 116.295 38.2704C119.756 38.2704 121.279 35.0057 121.279 22.8749C121.279 10.7442 119.618 7.33789 116.157 7.33789H116.154Z" fill="#12395F"></path><path d="M140.585 6.5943V73.4057C140.585 79.8968 134.463 80 134.206 80.0024H10.5935C4.31254 80.0024 4.21425 73.6744 4.21191 73.4057V6.5943C4.21191 0.103148 10.3338 0 10.5935 0H52.7329C51.2118 2.54273 48.2351 3.70375 43.8075 3.93403V11.2408H51.7664V38.7694H43.185V47.6378H72.3997V43.0897C75.2289 46.6543 79.1534 48.4198 83.9812 48.4198C92.5345 48.4198 98.1977 42.8666 100.06 31.6834C101.916 42.9193 107.624 48.4198 116.151 48.4198C126.743 48.4198 132.902 39.9064 132.902 22.7358C132.902 11.3199 130.188 3.76132 125.231 0.0023988H134.203C140.482 0.0023988 140.583 6.32804 140.583 6.5967L140.585 6.5943Z" fill="#E1C7E0"></path><path d="M134.206 1.61919C136.197 1.61919 137.548 2.36762 138.332 3.91004C138.991 5.2054 139.005 6.58231 139.005 6.5943V73.4057C139.005 75.4879 138.271 76.8936 136.761 77.7019C135.523 78.364 134.208 78.3808 134.206 78.3808H10.5935C8.59036 78.3808 7.23541 77.6228 6.45379 76.0636C5.81025 74.7778 5.79153 73.4081 5.79153 73.4057V6.5943C5.79153 4.52414 6.51698 3.12564 8.01 2.31244C9.25731 1.63358 10.5818 1.61919 10.5935 1.61919H48.0105C46.8521 1.9982 45.4339 2.22849 43.728 2.31724L42.2279 2.394V12.86H50.1868V37.1502H41.6054V49.257H73.9793V46.887C76.7173 48.9811 80.0661 50.039 83.9812 50.039C89.6186 50.039 96.5432 47.7985 100.056 38.0882C103.561 47.7985 110.5 50.039 116.151 50.039C122.996 50.039 134.482 46.4912 134.482 22.7358C134.482 13.2846 132.678 6.2081 129.109 1.62159H134.203M134.206 0H125.234C130.19 3.76132 132.905 11.3175 132.905 22.7334C132.905 39.904 126.745 48.4174 116.154 48.4174C107.624 48.4174 101.916 42.9145 100.063 31.681C98.2 42.8642 92.5391 48.4174 83.9835 48.4174C79.1557 48.4174 75.2313 46.6543 72.402 43.0873V47.6354H43.1874V38.767H51.7688V11.2408H43.8099V3.93403C48.2375 3.70375 51.2118 2.54273 52.7353 0H10.5935C10.3338 0 4.21191 0.103148 4.21191 6.5943V73.4057C4.21191 73.6744 4.31254 80.0024 10.5935 80.0024H134.206C134.463 80.0024 140.585 79.8968 140.585 73.4057V6.5943C140.585 6.32564 140.484 0 134.206 0Z" fill="#12395F"></path><path d="M139.034 70.7119H5.79199V73.1683H139.034V70.7119Z" fill="#56556A"></path><path d="M5.79153 70.7119H4.21191V73.1683H5.79153V70.7119Z" fill="#56556A"></path><path d="M140.586 70.7119H139.034V73.1683H140.586V70.7119Z" fill="#56556A"></path><path d="M15.4963 36.7756V48.9447H11.9182V36.7756H8.87598V33.5684H18.5409V36.7756H15.4986H15.4963Z" fill="#020000"></path><path d="M23.7692 49.1876C20.404 49.1876 18.4336 46.7048 18.4336 41.2811C18.4336 35.8574 20.4485 33.3291 23.8113 33.3291C27.1741 33.3291 29.1679 35.8334 29.1679 41.2355C29.1679 46.6376 27.1531 49.1876 23.7668 49.1876H23.7692ZM23.7902 36.4907C22.6553 36.4907 22.1194 37.5222 22.1194 41.2355C22.1194 44.9489 22.6974 46.0236 23.8113 46.0236C24.9252 46.0236 25.4822 44.9921 25.4822 41.2787C25.4822 37.5654 24.9042 36.4907 23.7902 36.4907Z" fill="#020000"></path><path d="M35.1024 43.3651H33.8177V48.9447H30.3027V33.5684H35.3598C38.0393 33.5684 40.0097 34.7989 40.0097 38.3564C40.0097 41.9138 37.9738 43.3651 35.1024 43.3651ZM35.0392 36.5573H33.8177V40.3786H34.9737C36.0034 40.3786 36.4527 39.8292 36.4527 38.4451C36.4527 37.061 36.0455 36.5549 35.0392 36.5549V36.5573Z" fill="#020000"></path><path d="M9.83594 24.4173V20.0635H10.4725V24.4173H9.83594Z" fill="#020000"></path><path d="M14.1069 24.4173L12.415 21.6875C12.312 21.5267 12.1669 21.2653 12.0991 21.1525C12.0991 21.3133 12.1061 21.9177 12.1061 22.16V24.4173H11.4883V20.0635H12.1365L13.7512 22.7189C13.8612 22.8989 14.0414 23.2227 14.1022 23.3354C14.1022 23.1747 14.0952 22.551 14.0952 22.3088V20.0635H14.713V24.4173H14.1069Z" fill="#020000"></path><path d="M17.3826 24.4173H15.6953V20.0635H17.4434C18.1829 20.0635 18.6626 20.4617 18.6626 21.1957C18.6626 21.6371 18.4333 21.9106 18.1221 22.0665C18.4567 22.16 18.8382 22.4767 18.8382 23.0812C18.8382 23.9639 18.3093 24.4173 17.3826 24.4173ZM17.4387 20.6608H16.2991V21.7858H17.4387C17.8576 21.7858 18.0285 21.5195 18.0285 21.2317C18.0285 20.9079 17.8646 20.6584 17.4387 20.6584V20.6608ZM17.4504 22.3759H16.2967V23.8176H17.4317C17.9957 23.8176 18.2016 23.5249 18.2016 23.0956C18.2016 22.6662 17.9278 22.3735 17.4504 22.3735V22.3759Z" fill="#020000"></path><path d="M21.2226 24.4847C20.1251 24.4847 19.4277 23.5588 19.4277 22.2394C19.4277 20.9201 20.1251 19.9941 21.2226 19.9941C22.3202 19.9941 23.0246 20.9201 23.0246 22.2394C23.0246 23.5588 22.3272 24.4847 21.2226 24.4847ZM21.2226 20.649C20.4832 20.649 20.076 21.2655 20.076 22.2418C20.076 23.2181 20.4832 23.8346 21.2226 23.8346C21.9621 23.8346 22.3763 23.2181 22.3763 22.2418C22.3763 21.2655 21.9692 20.649 21.2226 20.649Z" fill="#020000"></path><path d="M25.3743 24.4849C24.3236 24.4849 23.7783 23.7893 23.7783 22.5875V20.0615H24.4148V22.5683C24.4148 23.3887 24.7495 23.83 25.386 23.83C26.0225 23.83 26.3689 23.4079 26.3689 22.6114V20.0615H27.0054V22.5995C27.0054 23.818 26.4297 24.4849 25.3743 24.4849Z" fill="#020000"></path><path d="M30.5815 24.4173L28.8896 21.6875C28.7866 21.5267 28.6415 21.2653 28.5737 21.1525C28.5737 21.3133 28.5807 21.9177 28.5807 22.16V24.4173H27.9629V20.0635H28.6111L30.2258 22.7189C30.3358 22.8989 30.516 23.2227 30.5769 23.3354C30.5769 23.1747 30.5698 22.551 30.5698 22.3088V20.0635H31.1876V24.4173H30.5815Z" fill="#020000"></path><path d="M33.3312 24.4173H32.1729V20.0635H33.3312C34.4709 20.0635 35.3999 20.704 35.3999 22.2392C35.3999 23.7744 34.4405 24.4149 33.3312 24.4149V24.4173ZM33.3312 20.6968H32.8094V23.7816H33.3312C34.3375 23.7816 34.7517 23.1531 34.7517 22.2392C34.7517 21.3252 34.3398 20.6968 33.3312 20.6968Z" fill="#020000"></path><path d="M9.80566 30.4818V26.1279H10.4422V29.8413H12.56V30.4818H9.80566Z" fill="#020000"></path><path d="M14.708 30.5511C13.6105 30.5511 12.9131 29.6252 12.9131 28.3058C12.9131 26.9865 13.6105 26.0605 14.708 26.0605C15.8055 26.0605 16.5099 26.9865 16.5099 28.3058C16.5099 29.6252 15.8126 30.5511 14.708 30.5511ZM14.708 26.713C13.9685 26.713 13.5613 27.3295 13.5613 28.3058C13.5613 29.2821 13.9685 29.8986 14.708 29.8986C15.4475 29.8986 15.8617 29.2821 15.8617 28.3058C15.8617 27.3295 15.4545 26.713 14.708 26.713Z" fill="#020000"></path><path d="M18.8877 30.5511C17.7901 30.5511 17.0928 29.6252 17.0928 28.3058C17.0928 26.9865 17.7901 26.0605 18.8877 26.0605C19.5804 26.0605 20.0414 26.346 20.3316 26.8761L19.7723 27.2312C19.5546 26.8761 19.323 26.7154 18.8853 26.7154C18.1458 26.7154 17.7387 27.3319 17.7387 28.3082C17.7387 29.2845 18.1458 29.901 18.8853 29.901C19.578 29.901 19.8495 29.4357 19.8495 28.9247V28.9055H19.1568V28.277H20.4977V28.7808C20.4977 29.901 19.8308 30.5535 18.883 30.5535L18.8877 30.5511Z" fill="#020000"></path><path d="M21.3164 30.4818V26.1279H21.9529V30.4818H21.3164Z" fill="#020000"></path><path d="M24.2393 30.5511C23.6215 30.5511 23.0856 30.2776 22.7275 29.8483L23.1815 29.3949C23.467 29.7115 23.8859 29.9106 24.2861 29.9106C24.8805 29.9106 25.166 29.6995 25.166 29.2773C25.166 28.9415 24.9179 28.7736 24.2065 28.5553C23.3079 28.2818 22.8773 28.0516 22.8773 27.2743C22.8773 26.4971 23.4951 26.0605 24.2791 26.0605C24.8547 26.0605 25.2924 26.2788 25.6691 26.6507L25.2198 27.116C24.953 26.8354 24.6488 26.6986 24.2299 26.6986C23.7315 26.6986 23.5209 26.9481 23.5209 27.2408C23.5209 27.5334 23.7151 27.6941 24.4499 27.9196C25.2877 28.1811 25.8095 28.4546 25.8095 29.2318C25.8095 30.009 25.3251 30.5511 24.2393 30.5511Z" fill="#020000"></path><path d="M28.101 26.7684V30.4818H27.4645V26.7684H26.2266V26.1279H29.339V26.7684H28.101Z" fill="#020000"></path><path d="M30.085 30.4818V26.1279H30.7215V30.4818H30.085Z" fill="#020000"></path><path d="M33.331 30.5511C32.2335 30.5511 31.5361 29.6252 31.5361 28.3058C31.5361 26.9865 32.2335 26.0605 33.331 26.0605C34.0237 26.0605 34.4847 26.346 34.7749 26.8761L34.2109 27.236C33.9933 26.8809 33.7687 26.713 33.331 26.713C32.5915 26.713 32.1914 27.3295 32.1914 28.3058C32.1914 29.2821 32.5915 29.8986 33.331 29.8986C33.7733 29.8986 34.0471 29.7115 34.2648 29.3565L34.7936 29.7163C34.4894 30.2513 33.9746 30.5487 33.331 30.5487V30.5511Z" fill="#020000"></path><path d="M36.7735 30.5511C36.1557 30.5511 35.6198 30.2776 35.2617 29.8483L35.7157 29.3949C36.0012 29.7115 36.4201 29.9106 36.8203 29.9106C37.4147 29.9106 37.7002 29.6995 37.7002 29.2773C37.7002 28.9415 37.4521 28.7736 36.7407 28.5553C35.8421 28.2818 35.4115 28.0516 35.4115 27.2743C35.4115 26.4971 36.0293 26.0605 36.8133 26.0605C37.3889 26.0605 37.8265 26.2788 38.2033 26.6507L37.754 27.116C37.4872 26.8354 37.183 26.6986 36.7641 26.6986C36.2657 26.6986 36.055 26.9481 36.055 27.2408C36.055 27.5334 36.2493 27.6941 36.9841 27.9196C37.8219 28.1811 38.3437 28.4546 38.3437 29.2318C38.3437 30.009 37.8593 30.5511 36.7735 30.5511Z" fill="#020000"></path><path d="M150 70.7116H0V54.4717H150L142.98 62.7331L150 70.7116Z" fill="#4F53A4"></path><path d="M4.21191 67.1449V58.833H6.15893V65.4105H8.68397V67.1449H4.21191Z" fill="white"></path><path d="M11.5202 67.2745C9.70188 67.2745 8.63477 65.9336 8.63477 62.9998C8.63477 60.0661 9.72294 58.7012 11.5413 58.7012C13.3596 58.7012 14.436 60.0541 14.436 62.9758C14.436 65.8976 13.3479 67.2745 11.5179 67.2745H11.5202ZM11.5319 60.4115C10.9188 60.4115 10.6286 60.9704 10.6286 62.9758C10.6286 64.9812 10.9422 65.5641 11.5436 65.5641C12.145 65.5641 12.4469 65.0052 12.4469 62.9998C12.4469 60.9944 12.1333 60.4115 11.5319 60.4115Z" fill="white"></path><path d="M17.6032 67.2745C15.7732 67.2745 14.7178 65.8736 14.7178 62.9878C14.7178 60.1021 15.6796 58.7012 17.636 58.7012C19.3396 58.7012 19.9293 59.6151 20.278 61.1839L18.4246 61.7309C18.2514 60.8289 18.111 60.4115 17.6243 60.4115C16.9409 60.4115 16.721 61.076 16.721 62.9878C16.721 65.0412 17.0111 65.6001 17.7179 65.6001C18.3427 65.6001 18.5276 65.2211 18.5744 64.5542V64.2088H17.636V62.688H20.4044V63.9953C20.4044 66.0127 19.5011 67.2721 17.6009 67.2721L17.6032 67.2745Z" fill="white"></path><path d="M20.9629 67.1449V58.833H22.9216V67.1449H20.9629Z" fill="white"></path><path d="M26.0928 67.2745C24.8291 67.2745 24.1013 66.7396 23.4297 65.8256L24.7495 64.6022C25.2948 65.2667 25.7348 65.6121 26.1279 65.6121C26.521 65.6121 26.8229 65.3986 26.8229 64.9476C26.8229 64.4967 26.6966 64.1992 25.7792 63.7842C24.1692 63.0598 23.5795 62.4313 23.5795 61.124C23.5795 59.8166 24.5413 58.7012 26.0928 58.7012C27.3448 58.7012 27.9696 59.1641 28.6412 60.0181L27.298 61.2535C26.741 60.577 26.5444 60.3635 26.0343 60.3635C25.6645 60.3635 25.4539 60.649 25.4539 60.9584C25.4539 61.3974 25.6622 61.6469 26.4859 62.0163C28.1194 62.7527 28.7208 63.4412 28.7208 64.8301C28.7208 66.3845 27.5975 67.2769 26.0905 67.2769L26.0928 67.2745Z" fill="white"></path><path d="M32.3392 60.5673V67.1449H30.4039V60.5673H28.7588V58.833H33.982V60.5673H32.3369H32.3392Z" fill="white"></path><path d="M34.4473 67.1449V58.833H36.406V67.1449H34.4473Z" fill="white"></path><path d="M39.8112 67.2745C37.911 67.2745 36.9492 65.7896 36.9492 62.9998C36.9492 60.21 38.0257 58.7012 39.8346 58.7012C41.5383 58.7012 42.128 59.6991 42.4416 61.2895L40.5648 61.8124C40.4267 60.8865 40.298 60.4115 39.8229 60.4115C39.1981 60.4115 38.9547 61.088 38.9547 62.9758C38.9547 64.8637 39.1981 65.5641 39.8463 65.5641C40.298 65.5641 40.4478 65.2307 40.6677 64.2112L42.4627 64.8397C42.1046 66.3485 41.4189 67.2745 39.8089 67.2745H39.8112Z" fill="white"></path><path d="M45.1983 67.2745C43.9346 67.2745 43.2068 66.7396 42.5352 65.8256L43.855 64.6022C44.4003 65.2667 44.8402 65.6121 45.2334 65.6121C45.6265 65.6121 45.9284 65.3986 45.9284 64.9476C45.9284 64.4967 45.802 64.1992 44.8847 63.7842C43.2747 63.0598 42.6849 62.4313 42.6849 61.124C42.6849 59.8166 43.6467 58.7012 45.1983 58.7012C46.4503 58.7012 47.0751 59.1641 47.7467 60.0181L46.4035 61.2535C45.8465 60.577 45.6499 60.3635 45.1398 60.3635C44.77 60.3635 44.5617 60.649 44.5617 60.9584C44.5617 61.3974 44.77 61.6469 45.5938 62.0163C47.2272 62.7527 47.8286 63.4412 47.8286 64.8301C47.8286 66.3845 46.7053 67.2769 45.1983 67.2769V67.2745Z" fill="white"></path><path d="M50.8965 67.1449V58.833H52.8552V67.1449H50.8965Z" fill="white"></path><path d="M56.9086 60.5673V67.1449H54.9733V60.5673H53.3281V58.833H58.5514V60.5673H56.9062H56.9086Z" fill="white"></path><path d="M64.1138 64.1296H63.4188V67.1449H61.5186V58.833H64.2519C65.7004 58.833 66.7652 59.4975 66.7652 61.4213C66.7652 63.3451 65.6653 64.1296 64.1115 64.1296H64.1138ZM64.0787 60.4474H63.4188V62.5128H64.0436C64.6006 62.5128 64.8439 62.2153 64.8439 61.4669C64.8439 60.7185 64.624 60.445 64.0787 60.445V60.4474Z" fill="white"></path><path d="M70.5187 67.1449L69.5686 63.9616H69.0467V67.1449H67.1465V58.833H69.95C71.4103 58.833 72.4633 59.5095 72.4633 61.3613C72.4633 62.4408 72.0585 63.1413 71.3986 63.5467L72.5804 67.1449H70.5187ZM69.8119 60.4114H69.0467V62.4408H69.7768C70.3338 62.4408 70.5421 62.1074 70.5421 61.4189C70.5421 60.7305 70.3455 60.409 69.8119 60.409V60.4114Z" fill="white"></path><path d="M75.5921 67.2745C73.7738 67.2745 72.709 65.9336 72.709 62.9998C72.709 60.0661 73.7972 58.7012 75.6155 58.7012C77.4338 58.7012 78.5126 60.0541 78.5126 62.9758C78.5126 65.8976 77.4244 67.2745 75.5944 67.2745H75.5921ZM75.6038 60.4115C74.9906 60.4115 74.7005 60.9704 74.7005 62.9758C74.7005 64.9812 75.014 65.5641 75.6155 65.5641C76.2169 65.5641 76.5188 65.0052 76.5188 62.9998C76.5188 60.9944 76.2052 60.4115 75.6038 60.4115Z" fill="white"></path><path d="M82.2754 67.1449H80.3401L78.3135 58.833H80.3752L80.8034 61.2678C81 62.3592 81.2434 63.9281 81.3253 64.77C81.3955 63.9281 81.6389 62.3592 81.8237 61.2678L82.2403 58.833H84.2903L82.2754 67.1449Z" fill="white"></path><path d="M84.6719 67.1449V58.833H86.6306V67.1449H84.6719Z" fill="white"></path><path d="M89.5722 67.1449H87.3936V58.833H89.7454C91.8422 58.833 92.8719 60.0924 92.8719 62.9302C92.8719 65.9215 91.772 67.1449 89.5699 67.1449H89.5722ZM89.6776 60.4834H89.3289V65.5065H89.6308C90.5341 65.5065 90.8944 65.0675 90.8944 62.9661C90.8944 60.8648 90.5809 60.4834 89.6776 60.4834Z" fill="white"></path><path d="M93.3965 67.1449V58.833H98.147V60.5314H95.3201V61.9562H97.1618V63.6426H95.3201V65.4465H98.2266V67.1449H93.3965Z" fill="white"></path><path d="M102.13 67.1449L101.18 63.9616H100.658V67.1449H98.7578V58.833H101.561C103.022 58.833 104.075 59.5095 104.075 61.3613C104.075 62.4408 103.67 63.1413 103.01 63.5467L104.192 67.1449H102.13ZM101.423 60.4114H100.658V62.4408H101.388C101.945 62.4408 102.153 62.1074 102.153 61.4189C102.153 60.7305 101.957 60.409 101.423 60.409V60.4114Z" fill="white"></path><path d="M134.126 51.6289H107.275V79.9995H134.126V51.6289Z" fill="#020000"></path><path d="M110.205 67.44V65.9887L112.918 60.7449C113.056 60.4835 113.133 60.2532 113.154 60.0565C113.173 59.8598 113.184 59.6151 113.184 59.3224C113.184 59.1929 113.182 59.0538 113.177 58.9074C113.173 58.7611 113.145 58.634 113.096 58.5212C113.046 58.4109 112.972 58.3173 112.873 58.2406C112.775 58.1662 112.632 58.1278 112.445 58.1278C112.218 58.1278 112.04 58.1926 111.907 58.3245C111.773 58.4565 111.708 58.646 111.708 58.8978V59.7734H110.203V58.9266C110.203 58.6052 110.262 58.3029 110.381 58.0199C110.498 57.7368 110.662 57.4898 110.868 57.2787C111.064 57.0676 111.301 56.8996 111.574 56.7725C111.851 56.6454 112.145 56.583 112.459 56.583C112.852 56.583 113.189 56.6574 113.47 56.8013C113.751 56.9476 113.982 57.1467 114.17 57.3986C114.348 57.6505 114.476 57.9383 114.561 58.2598C114.645 58.5812 114.687 58.9242 114.687 59.2865C114.687 59.5479 114.682 59.7686 114.673 59.9437C114.663 60.1212 114.642 60.2892 114.614 60.4499C114.584 60.6106 114.535 60.7713 114.467 60.9344C114.399 61.0976 114.305 61.2919 114.186 61.5245L111.975 65.8928H114.687V67.4352H110.205V67.44Z" fill="white"></path><path d="M115.836 58.9028C115.836 58.5406 115.897 58.2168 116.021 57.9361C116.143 57.653 116.309 57.4132 116.515 57.2117C116.721 57.0102 116.959 56.8566 117.231 56.7511C117.5 56.6455 117.783 56.5928 118.078 56.5928C118.373 56.5928 118.656 56.6455 118.925 56.7511C119.194 56.8566 119.433 57.0102 119.641 57.2117C119.847 57.4132 120.011 57.6554 120.135 57.9361C120.257 58.2192 120.32 58.5406 120.32 58.9028V65.2189C120.32 65.5811 120.259 65.9049 120.135 66.1856C120.011 66.4686 119.847 66.7085 119.641 66.91C119.435 67.1115 119.196 67.265 118.925 67.3706C118.654 67.4761 118.373 67.5289 118.078 67.5289C117.783 67.5289 117.5 67.4761 117.231 67.3706C116.959 67.265 116.723 67.1115 116.515 66.91C116.309 66.7085 116.143 66.4662 116.021 66.1856C115.897 65.9025 115.836 65.5811 115.836 65.2189V58.9028ZM117.341 65.2189C117.341 65.4396 117.409 65.6243 117.547 65.7706C117.685 65.9169 117.86 65.9889 118.078 65.9889C118.295 65.9889 118.471 65.9169 118.609 65.7706C118.747 65.6243 118.815 65.4396 118.815 65.2189V58.9028C118.815 58.6821 118.747 58.4974 118.609 58.3511C118.471 58.2048 118.295 58.1328 118.078 58.1328C117.86 58.1328 117.685 58.2048 117.547 58.3511C117.409 58.4974 117.341 58.6821 117.341 58.9028V65.2189Z" fill="white"></path><path d="M121.469 67.44V65.9887L124.181 60.7449C124.319 60.4835 124.397 60.2532 124.418 60.0565C124.436 59.8598 124.448 59.6151 124.448 59.3224C124.448 59.1929 124.446 59.0538 124.441 58.9074C124.436 58.7611 124.408 58.634 124.359 58.5212C124.31 58.4109 124.235 58.3173 124.137 58.2406C124.039 58.1662 123.896 58.1278 123.709 58.1278C123.482 58.1278 123.304 58.1926 123.17 58.3245C123.037 58.4565 122.972 58.646 122.972 58.8978V59.7734H121.467V58.9266C121.467 58.6052 121.525 58.3029 121.645 58.0199C121.762 57.7368 121.925 57.4898 122.131 57.2787C122.328 57.0676 122.564 56.8996 122.838 56.7725C123.114 56.6454 123.409 56.583 123.723 56.583C124.116 56.583 124.453 56.6574 124.734 56.8013C125.014 56.9476 125.246 57.1467 125.433 57.3986C125.611 57.6505 125.74 57.9383 125.824 58.2598C125.908 58.5812 125.951 58.9242 125.951 59.2865C125.951 59.5479 125.946 59.7686 125.937 59.9437C125.927 60.1212 125.906 60.2892 125.878 60.4499C125.848 60.6106 125.798 60.7713 125.731 60.9344C125.663 61.0976 125.569 61.2919 125.45 61.5245L123.238 65.8928H125.951V67.4352H121.469V67.44Z" fill="white"></path><path d="M131.23 56.6816V58.1328H128.251V61.0354C128.389 60.8938 128.564 60.7763 128.782 60.6804C128.997 60.5844 129.238 60.5364 129.505 60.5364C130.015 60.5364 130.432 60.6947 130.75 61.0114C131.068 61.328 131.23 61.8054 131.23 62.4387V65.2189C131.23 65.5811 131.169 65.9049 131.045 66.1856C130.921 66.4687 130.757 66.7085 130.551 66.91C130.345 67.1115 130.107 67.2651 129.835 67.3706C129.564 67.4762 129.283 67.5289 128.988 67.5289C128.693 67.5289 128.41 67.4762 128.141 67.3706C127.869 67.2651 127.633 67.1115 127.425 66.91C127.219 66.7085 127.053 66.4663 126.931 66.1856C126.807 65.9025 126.746 65.5811 126.746 65.2189V64.7655H128.251V65.1589C128.251 65.4204 128.321 65.6243 128.464 65.7706C128.607 65.9169 128.791 65.9889 129.016 65.9889C129.241 65.9889 129.416 65.9193 129.54 65.7778C129.664 65.6363 129.725 65.4396 129.725 65.1877V62.6642C129.725 62.4531 129.66 62.2708 129.526 62.1196C129.393 61.9685 129.224 61.8918 129.018 61.8918C128.89 61.8918 128.782 61.9133 128.693 61.9589C128.604 62.0045 128.532 62.0573 128.471 62.1172C128.41 62.1772 128.368 62.2444 128.337 62.3139C128.288 62.4051 128.258 62.4603 128.248 62.4795H126.922V56.6768H131.228L131.23 56.6816Z" fill="white"></path></g><defs><clipPath id="clip0_2615_413"><rect width="150" height="80" fill="white"></rect></clipPath></defs></svg>